<svg width="86" height="65" viewBox="0 0 86 65" fill="none" xmlns="http://www.w3.org/2000/svg">
<path d="M1.59713 42.7442L6.08459 43.1772C6.5841 45.0505 7.3391 46.8462 8.32831 48.5136L5.47194 51.961C5.25773 52.2195 5.14767 52.5487 5.16331 52.884C5.17895 53.2194 5.31915 53.5369 5.55649 53.7743L10.7417 58.9597C10.9791 59.1971 11.2965 59.3373 11.6318 59.353C11.9671 59.3687 12.2963 59.2588 12.5548 59.0447L16.0109 56.1825C17.678 57.169 19.4704 57.9263 21.3398 58.434L21.7728 62.9145C21.8054 63.2467 21.9612 63.5548 22.2094 63.7781C22.4576 64.0014 22.7803 64.1238 23.1142 64.1213H30.4646C30.7985 64.1239 31.1214 64.0015 31.3697 63.7782C31.618 63.5549 31.7738 63.2468 31.8066 62.9145L32.2395 58.4288C34.1126 57.9296 35.9082 57.1751 37.5755 56.1864L41.023 59.0433C41.2814 59.2576 41.6106 59.3677 41.9459 59.3521C42.2813 59.3366 42.5988 59.1964 42.8363 58.9592L48.0209 53.7749C48.2583 53.5375 48.3986 53.2201 48.4143 52.8848C48.43 52.5495 48.3201 52.2204 48.106 51.9618L45.2447 48.5055C46.2313 46.8383 46.9887 45.0456 47.4965 43.176L51.9319 42.7433C52.2659 42.7111 52.576 42.5562 52.8022 42.3085C53.0284 42.0608 53.1547 41.7379 53.1564 41.4024V34.052C53.1549 33.7162 53.0285 33.3928 52.802 33.1448C52.5754 32.8969 52.2648 32.7419 51.9304 32.7101L47.4348 32.2771C46.9341 30.4036 46.1779 28.608 45.1877 26.9407L48.0421 23.4932C48.2552 23.2358 48.3651 22.9083 48.3505 22.5744C48.3358 22.2405 48.1976 21.9239 47.9628 21.6861L42.8434 16.5015C42.6065 16.2615 42.2883 16.1191 41.9515 16.1022C41.6147 16.0854 41.2838 16.1953 41.0241 16.4104L37.568 19.2718C35.9011 18.2853 34.1088 17.5281 32.2395 17.0203L31.8066 12.5485C31.7734 12.217 31.6172 11.9101 31.3687 11.6883C31.1203 11.4664 30.7976 11.3458 30.4646 11.3503H23.1142C22.7811 11.3458 22.4585 11.4664 22.21 11.6882C21.9615 11.91 21.8053 12.217 21.7722 12.5485L21.3398 17.03C19.4667 17.5283 17.671 18.2822 16.0034 19.2702L12.556 16.4121C12.2975 16.1978 11.9685 16.0876 11.6331 16.1031C11.2977 16.1186 10.9802 16.2587 10.7427 16.4959L5.55803 21.68C5.32072 21.9173 5.18047 22.2347 5.16473 22.5699C5.14899 22.9052 5.25888 23.2343 5.47291 23.4929L8.33525 26.949C7.34823 28.6157 6.59048 30.4079 6.08247 32.2771L1.59713 32.7091C1.2641 32.7416 0.955229 32.8973 0.731085 33.1458C0.50694 33.3942 0.383695 33.7174 0.385518 34.052V41.4024C0.38394 41.7368 0.507301 42.0598 0.731426 42.308C0.95555 42.5562 1.26428 42.7118 1.59713 42.7442V42.7442ZM3.08184 35.2764L7.30294 34.8688C7.58708 34.8413 7.85508 34.724 8.06811 34.534C8.28113 34.344 8.42812 34.0911 8.48778 33.8119C8.9821 31.5872 9.87491 29.4704 11.1231 27.5637C11.2783 27.3229 11.3528 27.0388 11.3356 26.7527C11.3185 26.4667 11.2106 26.1935 11.0277 25.9729L8.3314 22.718L11.78 19.2693L15.0348 21.9656C15.2582 22.1505 15.5353 22.2585 15.8249 22.2734C16.1145 22.2884 16.4012 22.2096 16.6424 22.0488C18.5385 20.7944 20.6516 19.9039 22.8736 19.4229C23.1516 19.367 23.4043 19.2234 23.5945 19.0132C23.7848 18.8031 23.9026 18.5374 23.9306 18.2552L24.3387 14.0467H29.2401L29.6476 18.2543C29.6753 18.5376 29.7928 18.8047 29.9829 19.0166C30.1731 19.2285 30.4259 19.3742 30.7045 19.4324C32.9291 19.9253 35.046 20.817 36.9529 22.0642C37.1938 22.2193 37.4779 22.2935 37.764 22.2762C38.05 22.2589 38.323 22.1509 38.5435 21.9679L41.7934 19.2754L45.1867 22.7134L42.4867 25.9731C42.3018 26.1964 42.1938 26.4735 42.1787 26.7631C42.1637 27.0527 42.2425 27.3394 42.4033 27.5807C43.6576 29.4768 44.548 31.5899 45.029 33.8119C45.0909 34.0918 45.24 34.3449 45.4549 34.5348C45.6697 34.7247 45.9392 34.8417 46.2246 34.8688L50.4601 35.2764V40.1794L46.2885 40.5862C46.0038 40.6138 45.7353 40.731 45.5214 40.9209C45.3075 41.1108 45.1593 41.3636 45.0981 41.643C44.6026 43.8678 43.7087 45.9846 42.4596 47.8911C42.3041 48.1318 42.2293 48.4158 42.2461 48.7019C42.263 48.9879 42.3705 49.2612 42.5532 49.482L45.2483 52.7368L41.7991 56.1858L38.5443 53.4895C38.3209 53.3045 38.0439 53.1965 37.7542 53.1814C37.4646 53.1664 37.1778 53.2452 36.9365 53.4061C35.0402 54.6608 32.9269 55.5514 30.7045 56.0323C30.426 56.0901 30.1732 56.2355 29.9831 56.4471C29.7929 56.6587 29.6754 56.9255 29.6476 57.2087L29.2401 61.4249H24.3387L23.931 57.2087C23.9034 56.9248 23.786 56.6572 23.596 56.4445C23.4059 56.2319 23.153 56.0854 22.874 56.0263C20.6494 55.5324 18.5326 54.64 16.6259 53.3922C16.3849 53.2371 16.1008 53.1628 15.8147 53.1801C15.5286 53.1974 15.2555 53.3055 15.035 53.4885L11.7802 56.1848L8.3312 52.736L11.0275 49.4812C11.2125 49.2578 11.3205 48.9808 11.3355 48.6912C11.3505 48.4016 11.2718 48.1149 11.1109 47.8736C9.85616 45.9776 8.96538 43.8645 8.48412 41.6424C8.42527 41.3635 8.27901 41.1106 8.06658 40.9205C7.85416 40.7304 7.58665 40.6131 7.30294 40.5854L3.08184 40.1779V35.2764Z" fill="#293B45"/>
<path d="M26.7903 53.3861C29.8874 53.3863 32.915 52.4681 35.4903 50.7476C38.0656 49.0271 40.0728 46.5816 41.2582 43.7203C42.4436 40.859 42.7539 37.7104 42.1498 34.6728C41.5457 31.6351 40.0544 28.8448 37.8645 26.6547C35.6746 24.4647 32.8844 22.9732 29.8468 22.3688C26.8092 21.7645 23.6606 22.0746 20.7992 23.2597C17.9378 24.4449 15.4921 26.452 13.7714 29.0271C12.0507 31.6023 11.1323 34.6299 11.1323 37.727C11.1371 41.8784 12.7883 45.8584 15.7237 48.7939C18.659 51.7295 22.6389 53.381 26.7903 53.3861ZM26.7903 24.7642C29.3541 24.764 31.8604 25.524 33.9923 26.9483C36.1242 28.3725 37.7858 30.3969 38.7671 32.7655C39.7484 35.1342 40.0053 37.7406 39.5053 40.2552C39.0052 42.7698 37.7707 45.0796 35.9579 46.8926C34.1451 48.7056 31.8353 49.9403 29.3208 50.4406C26.8062 50.9409 24.1998 50.6842 21.8311 49.7031C19.4623 48.722 17.4378 47.0606 16.0134 44.9288C14.5889 42.7971 13.8286 40.2908 13.8286 37.727C13.8325 34.2904 15.1993 30.9957 17.6292 28.5656C20.0591 26.1355 23.3537 24.7684 26.7903 24.7642V24.7642Z" fill="#293B45"/>
<path d="M81.6874 19.4874C81.7151 18.3011 81.6052 17.1157 81.3599 15.9548L83.6882 14.3979C83.9666 14.2117 84.1657 13.9286 84.2468 13.6037C84.3279 13.2788 84.2852 12.9354 84.127 12.6402L81.7195 8.1497C81.5612 7.85429 81.2984 7.62845 80.9826 7.51625C80.6668 7.40405 80.3204 7.41353 80.0112 7.54284L77.3873 8.64063C76.5586 7.78981 75.6322 7.03991 74.6274 6.40653L75.1859 3.64742C75.2522 3.31983 75.1943 2.97933 75.0237 2.69197C74.8531 2.4046 74.5818 2.19087 74.2625 2.09222L69.4368 0.601726C69.1146 0.502167 68.7668 0.526959 68.462 0.67121C68.1572 0.81546 67.9176 1.0687 67.7903 1.38096L66.7249 3.99582C65.5391 3.96813 64.3541 4.0776 63.1935 4.32208L61.6142 1.95528C61.4282 1.67646 61.145 1.4769 60.8199 1.39554C60.4948 1.31417 60.151 1.35684 59.8556 1.5152L55.3651 3.92263C55.0696 4.08099 54.8438 4.34371 54.7316 4.65956C54.6194 4.9754 54.6289 5.32171 54.7582 5.63095L55.856 8.25486C55.0053 9.08368 54.2554 10.0101 53.6219 11.0147L50.8628 10.4562C50.5335 10.3896 50.1913 10.4483 49.9031 10.6208C49.6148 10.7932 49.4014 11.0671 49.3045 11.3888L47.8354 16.2545C47.7383 16.5759 47.7647 16.9219 47.9093 17.2249C48.0539 17.5279 48.3064 17.766 48.6173 17.8927L51.2324 18.9577C51.2044 20.1435 51.3139 21.3284 51.5586 22.489L49.192 24.0682C48.9132 24.2542 48.7136 24.5373 48.6322 24.8625C48.5508 25.1876 48.5934 25.5314 48.7517 25.8268L51.1592 30.3173C51.3176 30.6127 51.5803 30.8385 51.8961 30.9507C52.212 31.0628 52.5583 31.0533 52.8675 30.924L55.4912 29.8262C56.3201 30.6769 57.2465 31.4267 58.2511 32.0603L57.6926 34.8192C57.6261 35.1483 57.6847 35.4903 57.857 35.7783C58.0293 36.0664 58.3028 36.2799 58.6242 36.377L63.4901 37.8463C63.8114 37.9435 64.1576 37.9173 64.4606 37.7726C64.7637 37.628 65.0018 37.3754 65.1283 37.0643L66.1937 34.4495C67.3795 34.4773 68.5645 34.3678 69.7251 34.1234L71.3044 36.49C71.4904 36.7688 71.7735 36.9684 72.0987 37.0497C72.4238 37.1311 72.7676 37.0884 73.063 36.9301L77.5535 34.5226C77.8489 34.3643 78.0747 34.1016 78.1869 33.7858C78.2991 33.47 78.2896 33.1237 78.1604 32.8145L77.0626 30.1906C77.9133 29.3618 78.6632 28.4354 79.2967 27.4307L82.0558 27.9893C82.3848 28.0558 82.7269 27.9971 83.0149 27.8248C83.303 27.6525 83.5165 27.3789 83.6135 27.0575L85.0826 22.1918C85.1797 21.8704 85.1533 21.5244 85.0087 21.2214C84.8642 20.9184 84.6117 20.6803 84.3009 20.5536L81.6874 19.4874ZM81.3885 25.1027L78.887 24.5965C78.6028 24.5392 78.3076 24.5751 78.0453 24.6987C77.783 24.8223 77.5674 25.0271 77.4306 25.2827C76.7074 26.6242 75.7408 27.8194 74.5802 28.8072C74.3625 28.9925 74.2094 29.2422 74.1429 29.5202C74.0764 29.7982 74.1 30.0902 74.2103 30.3539L75.2014 32.724L72.869 33.9747L71.4438 31.8369C71.2852 31.5991 71.0551 31.4178 70.7867 31.3194C70.5184 31.2209 70.2256 31.2102 69.9508 31.289C68.4774 31.7017 66.9414 31.8442 65.4172 31.7098C65.1316 31.6869 64.8461 31.7555 64.602 31.9056C64.358 32.0557 64.1681 32.2796 64.0597 32.5449L63.0968 34.909L60.5809 34.1494L61.0869 31.647C61.1443 31.3628 61.1086 31.0676 60.985 30.8053C60.8613 30.5429 60.6564 30.3275 60.4006 30.1908C59.0591 29.4676 57.8639 28.501 56.8762 27.3404C56.6909 27.1226 56.4412 26.9694 56.1631 26.9029C55.885 26.8364 55.593 26.8599 55.3292 26.9702L52.9592 27.9613L51.7087 25.629L53.8465 24.2038C54.0833 24.045 54.2637 23.8152 54.3617 23.5473C54.4597 23.2795 54.4703 22.9875 54.3919 22.7133C53.9792 21.2399 53.8365 19.704 53.9709 18.1798C53.994 17.8942 53.9256 17.6087 53.7755 17.3646C53.6253 17.1205 53.4013 16.9306 53.136 16.8224L50.7717 15.8595L51.5313 13.3438L54.0338 13.8497C54.3181 13.9072 54.6133 13.8714 54.8757 13.7477C55.138 13.6241 55.3534 13.4191 55.4901 13.1633C56.2132 11.8218 57.1798 10.6266 58.3405 9.63884C58.5581 9.45356 58.7113 9.20387 58.7778 8.92585C58.8443 8.64782 58.8207 8.35585 58.7104 8.09212L57.7193 5.72205L60.0517 4.47134L61.4769 6.60914C61.6355 6.84697 61.8657 7.0282 62.1341 7.12665C62.4025 7.22511 62.6952 7.2357 62.97 7.15688C64.4435 6.74449 65.9794 6.60192 67.5035 6.73606C67.7892 6.75966 68.075 6.69138 68.3192 6.54115C68.5634 6.39093 68.7532 6.16664 68.8609 5.90097L69.8214 3.54419L72.3016 4.31033L71.7942 6.82042C71.7367 7.10466 71.7724 7.39986 71.8961 7.66218C72.0197 7.92451 72.2246 8.13998 72.4804 8.27662C73.8219 8.99983 75.0171 9.96643 76.0049 11.127C76.1901 11.3447 76.4398 11.4979 76.7178 11.5645C76.9958 11.631 77.2878 11.6075 77.5516 11.4972L79.9218 10.5061L81.1737 12.8396L79.0744 14.2432C78.837 14.402 78.6561 14.632 78.5579 14.9002C78.4597 15.1684 78.4491 15.4609 78.5278 15.7354C78.9404 17.2089 79.083 18.7449 78.9489 20.2691C78.9257 20.5547 78.9942 20.8402 79.1443 21.0843C79.2945 21.3283 79.5184 21.5182 79.7838 21.6263L82.148 22.5893L81.3885 25.1027Z" fill="#293B45"/>
<path d="M69.717 8.43494C67.2213 7.68143 64.5415 7.81657 62.1342 8.81735C59.727 9.81813 57.7413 11.6226 56.5153 13.9234C55.2894 16.2241 54.8991 18.8788 55.411 21.435C55.923 23.9912 57.3054 26.2909 59.3227 27.9421C61.3401 29.5933 63.8676 30.494 66.4746 30.4906C69.0815 30.4873 71.6067 29.5801 73.6198 27.9236C75.6329 26.2672 77.0093 23.964 77.5146 21.4064C78.0199 18.8489 77.6228 16.1953 76.3909 13.8977C75.6949 12.5911 74.7467 11.4355 73.6011 10.4979C72.4555 9.56019 71.1353 8.85902 69.717 8.43494V8.43494ZM74.6666 21.7003C74.0933 23.5988 72.8795 25.2397 71.232 26.3436C69.5844 27.4474 67.6051 27.9459 65.6313 27.754C63.6574 27.5621 61.8112 26.6918 60.4071 25.2913C59.003 23.8908 58.1279 22.0467 57.931 20.0734C57.7341 18.1001 58.2275 16.1195 59.3271 14.4691C60.4267 12.8188 62.0646 11.6007 63.9616 11.0226C65.8586 10.4444 67.8974 10.5419 69.7305 11.2984C71.5637 12.0549 73.0779 13.4236 74.0151 15.1713C74.5499 16.1625 74.8828 17.2499 74.9946 18.3706C75.1063 19.4913 74.9947 20.623 74.6661 21.7003H74.6666Z" fill="#293B45"/>
</svg>
