<svg width="60" height="61" viewBox="0 0 60 61" fill="none" xmlns="http://www.w3.org/2000/svg">
<path d="M0.962357 36.026L6.4816 36.5576C7.07198 38.9037 8.01608 41.1464 9.28147 43.2084L5.76758 47.4516C5.59868 47.6555 5.51194 47.9151 5.52433 48.1796C5.53672 48.4441 5.64734 48.6944 5.83456 48.8816L11.8105 54.8574C11.9977 55.0447 12.2481 55.1553 12.5125 55.1677C12.777 55.1802 13.0366 55.0934 13.2405 54.9246L17.4909 51.4046C19.554 52.6641 21.7929 53.6097 24.1343 54.2102L24.6659 59.7108C24.6922 59.9718 24.8155 60.2134 25.0115 60.3878C25.2075 60.5622 25.4618 60.6567 25.7241 60.6525H34.1963C34.4586 60.6567 34.7129 60.5622 34.9088 60.3878C35.1048 60.2134 35.2282 59.9718 35.2545 59.7108L35.7861 54.2011C38.132 53.6126 40.3747 52.6703 42.4369 51.4064L46.6799 54.9227C46.8837 55.0918 47.1432 55.1787 47.4077 55.1665C47.6722 55.1543 47.9226 55.0439 48.11 54.8568L54.0859 48.8816C54.273 48.6944 54.3836 48.4441 54.396 48.1797C54.4084 47.9153 54.3217 47.6558 54.1529 47.4519L50.6337 43.2014C51.8933 41.1381 52.8389 38.8989 53.4395 36.5573L58.8845 36.0257C59.1473 36 59.3912 35.8775 59.5686 35.6819C59.746 35.4863 59.8443 35.2317 59.8444 34.9676V26.4954C59.8444 26.2311 59.7459 25.9763 59.5682 25.7806C59.3905 25.5849 59.1463 25.4625 58.8832 25.4371L53.364 24.9055C52.7736 22.5593 51.8295 20.3167 50.5641 18.2547L54.078 14.0114C54.2461 13.8084 54.3329 13.5502 54.3214 13.2869C54.3099 13.0235 54.2009 12.7739 54.0157 12.5863L48.1154 6.61033C47.9286 6.4211 47.6776 6.30876 47.412 6.29546C47.1464 6.28216 46.8855 6.36887 46.6807 6.53849L42.4303 10.0585C40.3673 8.79894 38.1283 7.85338 35.787 7.25281L35.2554 1.75225C35.2291 1.49124 35.1057 1.24963 34.9097 1.07523C34.7138 0.900839 34.4595 0.806381 34.1972 0.810558H25.725C25.4627 0.806381 25.2084 0.900839 25.0124 1.07523C24.8164 1.24963 24.6931 1.49124 24.6668 1.75225L24.1352 7.26192C21.7893 7.85043 19.5468 8.79281 17.4847 10.0566L13.2405 6.54092C13.0368 6.37187 12.7773 6.28491 12.5128 6.29708C12.2483 6.30924 11.9979 6.41964 11.8105 6.60669L5.83456 12.582C5.64743 12.7692 5.53686 13.0195 5.52447 13.2839C5.51208 13.5483 5.59877 13.8079 5.76758 14.0117L9.28754 18.2617C8.02808 20.3247 7.08252 22.5636 6.4819 24.9049L0.962357 25.4365C0.699156 25.4619 0.454858 25.5844 0.277145 25.7802C0.0994319 25.976 0.00105732 26.231 0.00122091 26.4954V34.9676C0.00120842 35.232 0.099651 35.4868 0.27735 35.6825C0.455048 35.8781 0.69926 36.0006 0.962357 36.026ZM2.12763 27.4611L7.44501 26.9486C7.66943 26.927 7.88117 26.8346 8.04962 26.6847C8.21807 26.5349 8.33452 26.3353 8.38215 26.1149C8.96512 23.493 10.0177 20.9981 11.489 18.7509C11.6115 18.561 11.6704 18.337 11.657 18.1114C11.6436 17.8858 11.5587 17.6704 11.4146 17.4963L8.02263 13.4013L12.6298 8.79415L16.7254 12.1862C16.9016 12.3321 17.1201 12.4173 17.3485 12.4292C17.5769 12.441 17.803 12.3789 17.9934 12.252C20.2302 10.7718 22.7231 9.72104 25.3446 9.15351C25.5637 9.10999 25.7629 8.99726 25.913 8.83192C26.0631 8.66659 26.1561 8.45741 26.1783 8.23521L26.6902 2.93636H33.231L33.7435 8.23475C33.7654 8.45806 33.8582 8.66851 34.0081 8.8354C34.1581 9.00229 34.3575 9.11689 34.5772 9.16247C37.1989 9.74376 39.6938 10.7947 41.9412 12.2646C42.1314 12.3868 42.3555 12.4452 42.5811 12.4314C42.8067 12.4176 43.022 12.3322 43.1958 12.1877L47.2867 8.79916L51.8269 13.3969L48.431 17.4978C48.2852 17.674 48.2001 17.8925 48.1882 18.1209C48.1764 18.3492 48.2386 18.5754 48.3654 18.7656C49.8456 21.0025 50.8963 23.4954 51.4639 26.1169C51.5116 26.3373 51.628 26.5368 51.7965 26.6866C51.9649 26.8364 52.1766 26.9288 52.401 26.9505L57.718 27.4611V34.0032L52.475 34.5146C52.2508 34.5364 52.0394 34.629 51.8712 34.7788C51.703 34.9286 51.5867 35.1279 51.5391 35.3481C50.9561 37.9701 49.9035 40.4649 48.4323 42.7122C48.3097 42.902 48.2509 43.126 48.2643 43.3516C48.2776 43.5772 48.3626 43.7927 48.5067 43.9667L51.8986 48.0617L47.2916 52.6689L43.1958 49.277C43.0197 49.1311 42.8012 49.0459 42.5728 49.0341C42.3443 49.0222 42.1182 49.0843 41.9279 49.2112C39.691 50.6914 37.1981 51.7422 34.5766 52.3097C34.3576 52.3532 34.1583 52.466 34.0082 52.6313C33.8581 52.7966 33.7651 53.0058 33.7429 53.228L33.231 58.5267H26.6902L26.1777 53.2283C26.1558 53.005 26.0631 52.7945 25.9131 52.6277C25.7631 52.4608 25.5637 52.3462 25.344 52.3006C22.7223 51.7193 20.2274 50.6683 17.98 49.1985C17.7899 49.0763 17.5657 49.0178 17.3401 49.0316C17.1145 49.0455 16.8992 49.1308 16.7254 49.2753L12.6298 52.6683L8.02263 48.0617L11.4146 43.9663C11.5604 43.7901 11.6455 43.5716 11.6573 43.3433C11.6692 43.1149 11.607 42.8888 11.4802 42.6985C10 40.4616 8.9493 37.9687 8.38169 35.3472C8.33404 35.1268 8.21757 34.9273 8.04912 34.7775C7.88067 34.6277 7.66896 34.5353 7.44455 34.5136L2.12763 34.0019V27.4611Z" fill="#293B45"/>
<path d="M29.9608 48.2896C33.4334 48.2895 36.8281 47.2597 39.7155 45.3304C42.6029 43.4011 44.8533 40.6589 46.1822 37.4506C47.5111 34.2423 47.8588 30.7119 47.1813 27.306C46.5038 23.9001 44.8315 20.7716 42.376 18.316C39.9204 15.8605 36.7919 14.1883 33.386 13.5108C29.9801 12.8334 26.4497 13.1811 23.2414 14.51C20.0331 15.8389 17.2909 18.0894 15.3616 20.9768C13.4323 23.8642 12.4026 27.2589 12.4026 30.7315C12.4079 35.3866 14.2595 39.8495 17.5511 43.1411C20.8428 46.4327 25.3057 48.2843 29.9608 48.2896ZM29.9608 15.2999C33.0129 15.2999 35.9964 16.205 38.5341 17.9007C41.0718 19.5963 43.0497 22.0064 44.2176 24.8262C45.3856 27.646 45.6912 30.7487 45.0957 33.7422C44.5003 36.7356 43.0306 39.4852 40.8724 41.6434C38.7142 43.8015 35.9646 45.2712 32.9711 45.8666C29.9777 46.4621 26.8749 46.1565 24.0552 44.9885C21.2354 43.8205 18.8253 41.8426 17.1297 39.3049C15.434 36.7671 14.529 33.7836 14.529 30.7315C14.5337 26.6402 16.1611 22.7178 19.0541 19.8248C21.9471 16.9319 25.8695 15.3045 29.9608 15.2999Z" fill="#293B45"/>
<path d="M27.2244 35.7835C27.423 35.9774 27.6895 36.0859 27.9671 36.0859C28.2446 36.0859 28.5112 35.9774 28.7098 35.7835L37.5004 27.2011C37.6015 27.1039 37.6824 26.9876 37.7384 26.8589C37.7943 26.7303 37.8243 26.5918 37.8265 26.4515C37.8287 26.3113 37.8031 26.1719 37.7512 26.0416C37.6994 25.9112 37.6222 25.7924 37.5242 25.692C37.4262 25.5917 37.3092 25.5117 37.1802 25.4567C37.0511 25.4017 36.9124 25.3728 36.7721 25.3716C36.6318 25.3705 36.4927 25.3971 36.3627 25.45C36.2328 25.5029 36.1146 25.5809 36.0149 25.6797L27.9671 33.5369L23.8306 29.4983C23.7307 29.4007 23.6126 29.3238 23.4829 29.272C23.3533 29.2201 23.2147 29.1942 23.0751 29.1959C22.9355 29.1976 22.7976 29.2268 22.6692 29.2817C22.5409 29.3367 22.4246 29.4164 22.3271 29.5163C22.2296 29.6163 22.1526 29.7344 22.1008 29.864C22.0489 29.9937 22.0231 30.1322 22.0247 30.2719C22.0264 30.4115 22.0556 30.5494 22.1106 30.6777C22.1655 30.8061 22.2453 30.9223 22.3452 31.0199L27.2244 35.7835Z" fill="#293B45"/>
</svg>
