<svg width="69" height="48" viewBox="0 0 69 48" fill="none" xmlns="http://www.w3.org/2000/svg">
<path d="M25.4216 47.9487C26.5788 47.9519 27.7252 47.7255 28.7943 47.2827C29.8635 46.8399 30.8342 46.1894 31.6503 45.3689L38.6814 38.3378L66.8898 42.3842C67.0776 42.4112 67.2692 42.3938 67.4491 42.3334C67.629 42.273 67.7923 42.1713 67.9258 42.0364C68.0593 41.9016 68.1594 41.7374 68.2181 41.5569C68.2767 41.3764 68.2923 41.1847 68.2635 40.9971L67.807 38.0225C67.7723 37.7969 67.6749 37.5856 67.5257 37.4128C67.3765 37.24 67.1817 37.1127 66.9636 37.0455L46.1545 30.6338C47.2918 28.9379 47.8057 26.9 47.6086 24.8675C47.4115 22.8351 46.5155 20.9339 45.0734 19.4882L28.9658 3.37989C27.4105 1.82895 25.3324 0.914212 23.1381 0.814673C20.9439 0.715135 18.7915 1.43796 17.1022 2.84171C15.2014 1.22276 12.7611 0.378082 10.2662 0.47547C7.77127 0.572857 5.40428 1.60519 3.63544 3.36737C1.86661 5.12956 0.825372 7.49265 0.718591 9.98717C0.61181 12.4817 1.4473 14.9251 3.05907 16.832C1.42151 18.4877 0.505266 20.7239 0.510274 23.0527C0.515283 25.3814 1.44113 27.6136 3.08581 29.2623L19.1936 45.3701C20.0097 46.1903 20.9804 46.8405 22.0494 47.2831C23.1184 47.7257 24.2646 47.9519 25.4216 47.9487ZM18.2271 5.0986C19.4232 3.90252 21.0455 3.23057 22.737 3.23057C24.4286 3.23057 26.0508 3.90252 27.2469 5.0986L43.3545 21.2066C44.549 22.4035 45.2198 24.0255 45.2198 25.7165C45.2198 27.4075 44.549 29.0294 43.3545 30.2263L43.1856 30.3953C43.0375 30.5434 42.9301 30.7273 42.874 30.9292C42.8179 31.1311 42.8149 31.344 42.8654 31.5474C42.9159 31.7507 43.0181 31.9376 43.1621 32.0898C43.306 32.242 43.4869 32.3544 43.6872 32.4161L65.5212 39.143L65.6134 39.7447L38.4255 35.8445C38.2386 35.8176 38.048 35.8347 37.8689 35.8943C37.6897 35.9539 37.5269 36.0545 37.3934 36.188L36.0913 37.4901L5.85554 17.4711L18.2271 5.0986ZM5.34079 5.0986C6.64935 3.79344 8.39235 3.01534 10.2377 2.91257C12.083 2.8098 13.9016 3.38954 15.347 4.54132L4.78369 15.1055C3.6318 13.66 3.05198 11.8413 3.15472 9.99585C3.25746 8.15041 4.03557 6.40727 5.34079 5.0986ZM4.16547 19.2663L34.3367 39.2442L29.9317 43.65C29.3395 44.2423 28.6364 44.7121 27.8626 45.0327C27.0888 45.3532 26.2594 45.5182 25.4219 45.5182C24.5843 45.5182 23.7549 45.3532 22.9811 45.0327C22.2073 44.7121 21.5042 44.2423 20.912 43.65L4.804 27.5424C3.72935 26.4651 3.07456 25.0397 2.9575 23.5226C2.84044 22.0054 3.2688 20.4964 4.16547 19.267V19.2663Z" fill="#293B45"/>
</svg>
