<svg width="21" height="21" viewBox="0 0 21 21" fill="none" xmlns="http://www.w3.org/2000/svg">
<path d="M4.8133 1.78544C4.73951 1.69052 4.64637 1.61238 4.54007 1.55623C4.43376 1.50007 4.31672 1.46717 4.19672 1.45973C4.07672 1.45228 3.95652 1.47045 3.84408 1.51303C3.73164 1.55561 3.62956 1.62162 3.54459 1.70669L2.25214 3.0004C1.6484 3.60538 1.42591 4.4616 1.68965 5.21283C2.78429 8.32221 4.56493 11.1453 6.89949 13.4726C9.22682 15.8071 12.0499 17.5877 15.1592 18.6824C15.9104 18.9461 16.7667 18.7236 17.3717 18.1199L18.6641 16.8275C18.7492 16.7425 18.8152 16.6404 18.8578 16.528C18.9004 16.4155 18.9185 16.2953 18.9111 16.1753C18.9036 16.0553 18.8707 15.9383 18.8146 15.832C18.7584 15.7257 18.6803 15.6325 18.5854 15.5587L15.7017 13.3163C15.6003 13.2377 15.4823 13.1831 15.3568 13.1567C15.2312 13.1302 15.1012 13.1327 14.9767 13.1638L12.2393 13.8476C11.8739 13.9389 11.4911 13.934 11.1282 13.8335C10.7652 13.7329 10.4345 13.5401 10.1681 13.2738L7.09823 10.2027C6.8317 9.93647 6.63865 9.60579 6.53789 9.24282C6.43713 8.87986 6.43208 8.49698 6.52325 8.13149L7.20823 5.39407C7.23936 5.26957 7.24181 5.13962 7.21539 5.01404C7.18898 4.88845 7.13438 4.7705 7.05573 4.6691L4.8133 1.78544ZM2.60087 0.76422C2.81961 0.545414 3.08239 0.375646 3.37177 0.266188C3.66115 0.15673 3.97051 0.110087 4.2793 0.129357C4.58809 0.148627 4.88924 0.233368 5.16277 0.377954C5.4363 0.522539 5.67593 0.723661 5.86577 0.967964L8.1082 3.85037C8.51943 4.3791 8.66443 5.06783 8.50194 5.71781L7.81821 8.45522C7.78286 8.59701 7.78477 8.74552 7.82375 8.88635C7.86274 9.02717 7.93747 9.15553 8.0407 9.25895L11.1119 12.3301C11.2154 12.4335 11.344 12.5084 11.485 12.5474C11.6261 12.5864 11.7749 12.5882 11.9168 12.5526L14.653 11.8689C14.9737 11.7887 15.3085 11.7824 15.6321 11.8506C15.9556 11.9189 16.2594 12.0597 16.5204 12.2626L19.4028 14.505C20.4391 15.3113 20.534 16.8425 19.6066 17.7687L18.3141 19.0611C17.3892 19.9861 16.0067 20.3923 14.718 19.9386C11.4196 18.7781 8.42478 16.8898 5.95577 14.4138C3.47996 11.9451 1.59167 8.95078 0.430944 5.65281C-0.0215414 4.36536 0.384696 2.98165 1.30967 2.05668L2.60212 0.76422H2.60087Z" fill="#FAB246"/>
</svg>
