<svg width="21" height="21" viewBox="0 0 21 21" fill="none" xmlns="http://www.w3.org/2000/svg">
<path d="M10.3489 0.919434C4.83488 0.919434 0.348877 5.40543 0.348877 10.9194C0.348877 16.4334 4.83488 20.9194 10.3489 20.9194C15.8629 20.9194 20.3489 16.4334 20.3489 10.9194C20.3489 5.40543 15.8629 0.919434 10.3489 0.919434ZM10.3489 18.9194C5.93788 18.9194 2.34888 15.3304 2.34888 10.9194C2.34888 6.50843 5.93788 2.91943 10.3489 2.91943C14.7599 2.91943 18.3489 6.50843 18.3489 10.9194C18.3489 15.3304 14.7599 18.9194 10.3489 18.9194Z" fill="#F1AC44"/>
<path d="M11.3489 5.91943H9.34888V11.3334L12.6419 14.6264L14.0559 13.2124L11.3489 10.5054V5.91943Z" fill="#F1AC44"/>
</svg>
