<svg width="28" height="28" viewBox="0 0 28 28" fill="none" xmlns="http://www.w3.org/2000/svg">
<path d="M13.9239 27.6606C13.8345 27.6606 13.7451 27.6606 13.6551 27.6602C11.5387 27.6653 9.58324 27.6116 7.6815 27.4958C5.93797 27.3897 4.34647 26.7872 3.07878 25.7535C1.85559 24.7561 1.02029 23.4074 0.596146 21.7455C0.227005 20.2986 0.207436 18.8782 0.18869 17.5045C0.175095 16.5188 0.161087 15.3508 0.158203 14.163C0.161087 12.9703 0.175095 11.8024 0.18869 10.8167C0.207436 9.44311 0.227005 8.02279 0.596146 6.57568C1.02029 4.91372 1.85559 3.56508 3.07878 2.56766C4.34647 1.53398 5.93797 0.931451 7.68171 0.825364C9.58344 0.709801 11.5394 0.655831 13.6603 0.660981C15.7773 0.656449 17.7321 0.709801 19.6339 0.825364C21.3774 0.931451 22.9689 1.53398 24.2366 2.56766C25.46 3.56508 26.2951 4.91372 26.7192 6.57568C27.0884 8.02258 27.1079 9.44311 27.1267 10.8167C27.1403 11.8024 27.1545 12.9703 27.1572 14.1581V14.163C27.1545 15.3508 27.1403 16.5188 27.1267 17.5045C27.1079 18.878 27.0886 20.2984 26.7192 21.7455C26.2951 23.4074 25.46 24.7561 24.2366 25.7535C22.9689 26.7872 21.3774 27.3897 19.6339 27.4958C17.8127 27.6066 15.9418 27.6606 13.9239 27.6606ZM13.6551 25.5508C15.7371 25.5557 17.6487 25.5032 19.5057 25.3903C20.8241 25.3102 21.9672 24.8823 22.9036 24.1187C23.7692 23.4128 24.3653 22.4389 24.6754 21.2239C24.9827 20.0195 25.0004 18.7262 25.0175 17.4756C25.0309 16.4965 25.0449 15.3368 25.0478 14.1606C25.0449 12.9841 25.0309 11.8246 25.0175 10.8455C25.0004 9.59493 24.9827 8.3017 24.6754 7.09705C24.3653 5.8821 23.7692 4.90816 22.9036 4.20222C21.9672 3.43881 20.8241 3.01096 19.5057 2.93083C17.6487 2.81774 15.7371 2.76562 13.6601 2.77015C11.5785 2.76521 9.66666 2.81774 7.80963 2.93083C6.49127 3.01096 5.34821 3.43881 4.41177 4.20222C3.54618 4.90816 2.95004 5.8821 2.64001 7.09705C2.33267 8.3017 2.31496 9.59473 2.29786 10.8455C2.28447 11.8254 2.27046 12.9858 2.26758 14.163C2.27046 15.3352 2.28447 16.4957 2.29786 17.4756C2.31496 18.7262 2.33267 20.0195 2.64001 21.2239C2.95004 22.4389 3.54618 23.4128 4.41177 24.1187C5.34821 24.8821 6.49127 25.31 7.80963 25.3901C9.66666 25.5032 11.5789 25.5559 13.6551 25.5508ZM13.6049 20.7524C9.9703 20.7524 7.01305 17.7953 7.01305 14.1606C7.01305 10.5258 9.9703 7.56878 13.6049 7.56878C17.2396 7.56878 20.1966 10.5258 20.1966 14.1606C20.1966 17.7953 17.2396 20.7524 13.6049 20.7524ZM13.6049 9.67815C11.1333 9.67815 9.12243 11.6891 9.12243 14.1606C9.12243 16.6321 11.1333 18.643 13.6049 18.643C16.0766 18.643 18.0873 16.6321 18.0873 14.1606C18.0873 11.6891 16.0766 9.67815 13.6049 9.67815ZM20.9349 5.4594C20.0613 5.4594 19.3529 6.16761 19.3529 7.04143C19.3529 7.91526 20.0613 8.62346 20.9349 8.62346C21.8088 8.62346 22.517 7.91526 22.517 7.04143C22.517 6.16761 21.8088 5.4594 20.9349 5.4594Z" fill="white"/>
</svg>
