<svg width="61" height="66" viewBox="0 0 61 66" fill="none" xmlns="http://www.w3.org/2000/svg">
<path d="M59.7171 0.654419H50.4806C50.1948 0.654419 49.9207 0.767951 49.7186 0.970039C49.5165 1.17213 49.403 1.44622 49.403 1.73201V9.89093H39.3968V5.58056C39.3968 5.29476 39.2832 5.02067 39.0811 4.81859C38.8791 4.6165 38.605 4.50297 38.3192 4.50297H22.925C22.6392 4.50297 22.3651 4.6165 22.163 4.81859C21.9609 5.02067 21.8474 5.29476 21.8474 5.58056V9.89093H11.8412V1.73201C11.8412 1.44622 11.7276 1.17213 11.5255 0.970039C11.3235 0.767951 11.0494 0.654419 10.7636 0.654419H1.52706C1.24126 0.654419 0.96717 0.767951 0.765082 0.970039C0.562994 1.17213 0.449463 1.44622 0.449463 1.73201V20.205C0.449463 20.4908 0.562994 20.7649 0.765082 20.967C0.96717 21.1691 1.24126 21.2826 1.52706 21.2826H10.7636C11.0494 21.2826 11.3235 21.1691 11.5255 20.967C11.7276 20.7649 11.8412 20.4908 11.8412 20.205V12.0461H21.8474V16.3565C21.8474 16.6423 21.9609 16.9164 22.163 17.1185C22.3651 17.3206 22.6392 17.4341 22.925 17.4341H26.4656V20.8208C26.4656 21.1066 26.5792 21.3807 26.7813 21.5828C26.9834 21.7849 27.2574 21.8984 27.5432 21.8984H29.5445V46.2897C27.606 46.5327 25.8037 47.4146 24.4222 48.796C23.0407 50.1775 22.1589 51.9798 21.9159 53.9183H11.8412V45.7594C11.8412 45.4736 11.7276 45.1995 11.5255 44.9974C11.3235 44.7953 11.0494 44.6818 10.7636 44.6818H1.52706C1.24126 44.6818 0.96717 44.7953 0.765082 44.9974C0.562994 45.1995 0.449463 45.4736 0.449463 45.7594V64.2324C0.449463 64.5182 0.562994 64.7923 0.765082 64.9944C0.96717 65.1965 1.24126 65.31 1.52706 65.31H10.7636C11.0494 65.31 11.3235 65.1965 11.5255 64.9944C11.7276 64.7923 11.8412 64.5182 11.8412 64.2324V56.0735H21.9159C22.1783 58.1977 23.2083 60.1526 24.8118 61.5702C26.4153 62.9878 28.4818 63.7703 30.6221 63.7703C32.7624 63.7703 34.8288 62.9878 36.4324 61.5702C38.0359 60.1526 39.0658 58.1977 39.3283 56.0735H49.403V64.2324C49.403 64.5182 49.5165 64.7923 49.7186 64.9944C49.9207 65.1965 50.1948 65.31 50.4806 65.31H59.7171C60.0029 65.31 60.277 65.1965 60.4791 64.9944C60.6812 64.7923 60.7947 64.5182 60.7947 64.2324V45.7594C60.7947 45.4736 60.6812 45.1995 60.4791 44.9974C60.277 44.7953 60.0029 44.6818 59.7171 44.6818H50.4806C50.1948 44.6818 49.9207 44.7953 49.7186 44.9974C49.5165 45.1995 49.403 45.4736 49.403 45.7594V53.9183H39.3283C39.0853 51.9798 38.2034 50.1775 36.822 48.796C35.4405 47.4146 33.6382 46.5327 31.6997 46.2897V21.8984H33.7009C33.9867 21.8984 34.2608 21.7849 34.4629 21.5828C34.665 21.3807 34.7785 21.1066 34.7785 20.8208V17.4341H38.3192C38.605 17.4341 38.8791 17.3206 39.0811 17.1185C39.2832 16.9164 39.3968 16.6423 39.3968 16.3565V12.0461H49.403V20.205C49.403 20.4908 49.5165 20.7649 49.7186 20.967C49.9207 21.1691 50.1948 21.2826 50.4806 21.2826H59.7171C60.0029 21.2826 60.277 21.1691 60.4791 20.967C60.6812 20.7649 60.7947 20.4908 60.7947 20.205V1.73201C60.7947 1.44622 60.6812 1.17213 60.4791 0.970039C60.277 0.767951 60.0029 0.654419 59.7171 0.654419ZM9.68598 19.1274H2.60465V2.80961H9.68598V19.1274ZM9.68598 63.1548H2.60465V46.837H9.68598V63.1548ZM51.5582 46.837H58.6395V63.1548H51.5582V46.837ZM37.2416 54.9959C37.2416 56.3051 36.8534 57.5849 36.126 58.6735C35.3986 59.7621 34.3648 60.6105 33.1553 61.1115C31.9457 61.6125 30.6147 61.7436 29.3307 61.4882C28.0466 61.2328 26.8671 60.6024 25.9414 59.6766C25.0156 58.7509 24.3852 57.5714 24.1298 56.2873C23.8744 55.0033 24.0054 53.6723 24.5065 52.4627C25.0075 51.2532 25.8559 50.2194 26.9445 49.492C28.0331 48.7646 29.3129 48.3764 30.6221 48.3764C32.3771 48.3784 34.0596 49.0765 35.3006 50.3174C36.5415 51.5584 37.2396 53.2409 37.2416 54.9959ZM32.6233 19.7432H28.6208V17.4341H32.6233V19.7432ZM37.2416 15.2789H24.0026V6.65815H37.2416V15.2789ZM58.6395 19.1274H51.5582V2.80961H58.6395V19.1274Z" fill="#293B45"/>
</svg>
