<svg width="17" height="21" viewBox="0 0 17 21" fill="none" xmlns="http://www.w3.org/2000/svg">
<path d="M8.79224 12.5796C10.9982 12.5796 12.7922 10.7856 12.7922 8.57959C12.7922 6.37359 10.9982 4.57959 8.79224 4.57959C6.58624 4.57959 4.79224 6.37359 4.79224 8.57959C4.79224 10.7856 6.58624 12.5796 8.79224 12.5796ZM8.79224 6.57959C9.89524 6.57959 10.7922 7.47659 10.7922 8.57959C10.7922 9.68259 9.89524 10.5796 8.79224 10.5796C7.68924 10.5796 6.79224 9.68259 6.79224 8.57959C6.79224 7.47659 7.68924 6.57959 8.79224 6.57959Z" fill="#FAB246"/>
<path d="M8.21232 20.3936C8.38157 20.5145 8.58435 20.5794 8.79232 20.5794C9.0003 20.5794 9.20308 20.5145 9.37232 20.3936C9.67632 20.1786 16.8213 15.0196 16.7923 8.57959C16.7923 4.16859 13.2033 0.57959 8.79232 0.57959C4.38132 0.57959 0.792324 4.16859 0.792324 8.57459C0.763324 15.0196 7.90832 20.1786 8.21232 20.3936ZM8.79232 2.57959C12.1013 2.57959 14.7923 5.27059 14.7923 8.58459C14.8133 13.0226 10.4043 17.0076 8.79232 18.3146C7.18132 17.0066 2.77132 13.0206 2.79232 8.57959C2.79232 5.27059 5.48332 2.57959 8.79232 2.57959Z" fill="#FAB246"/>
</svg>
