<svg width="63" height="63" viewBox="0 0 63 63" fill="none" xmlns="http://www.w3.org/2000/svg">
<path d="M1.76235 34.1102H5.65247C5.89373 49.618 18.5409 62.0821 34.0549 62.0821C49.7191 62.0821 62.4492 49.345 62.4492 33.6807C62.4496 18.1667 49.9855 5.52624 34.4777 5.28512V1.39487C34.4806 1.16764 34.4018 0.946937 34.2557 0.772863C34.1097 0.598789 33.906 0.482908 33.6817 0.446285C29.2024 -0.271994 24.6166 0.0822635 20.3008 1.47998C15.9849 2.87769 12.0621 5.279 8.85423 8.48681C5.6464 11.6946 3.24505 15.6174 1.8473 19.9333C0.44955 24.2491 0.0952545 28.8349 0.813496 33.3142C0.850285 33.5385 0.966251 33.7421 1.14035 33.8881C1.31444 34.0342 1.53513 34.113 1.76235 34.1102ZM34.1115 13.8329C34.2277 13.7427 34.3213 13.6267 34.3849 13.4941C34.4484 13.3615 34.4802 13.2158 34.4777 13.0688V7.20643C48.8876 7.44742 60.5283 19.2328 60.5283 33.6874C60.5283 48.2921 48.653 60.1604 34.0483 60.1604C19.5937 60.1608 7.81491 48.5201 7.57378 34.1102H13.4363C13.5834 34.1132 13.7293 34.0817 13.862 34.0181C13.9948 33.9546 14.1109 33.8608 14.2009 33.7443C14.2909 33.6278 14.3523 33.4919 14.3802 33.3474C14.4082 33.2028 14.4019 33.0538 14.3618 32.9121C13.631 30.2893 13.6105 27.5194 14.3023 24.886C14.9941 22.2526 16.3734 19.8505 18.299 17.9255C20.2245 16.0005 22.6271 14.6219 25.2606 13.9308C27.8942 13.2398 30.6641 13.2611 33.2868 13.9927C33.4271 14.0324 33.5749 14.0386 33.7181 14.0108C33.8614 13.9831 33.9961 13.9222 34.1115 13.8329ZM3.60956 20.7206C5.49416 14.7291 9.42773 9.59238 14.7206 6.21091C20.0135 2.82944 26.3278 1.41911 32.5564 2.22721V11.8518C29.765 11.2846 26.8765 11.4176 24.149 12.2389C21.4216 13.0602 18.9399 14.5441 16.9258 16.5583C14.9116 18.5724 13.4276 21.0541 12.6063 23.7816C11.785 26.509 11.652 29.3975 12.2191 32.1889H2.59469C2.10308 28.3376 2.44926 24.4256 3.60956 20.7206Z" fill="#293B45"/>
<path d="M19.3704 33.6873C19.3748 37.5805 20.9233 41.313 23.6762 44.0659C26.4291 46.8188 30.1615 48.3673 34.0547 48.3717H34.0724H34.0769C34.0795 48.3717 34.0819 48.3717 34.0843 48.3717C37.8996 48.3664 41.5619 46.8714 44.2909 44.2053C44.4147 44.1286 44.5189 44.0242 44.5953 43.9002C47.2024 41.2192 48.6842 37.6418 48.7363 33.9025C48.7696 33.7612 48.7696 33.6141 48.7363 33.4728C48.6844 29.7333 47.2027 26.1556 44.5955 23.4743C44.519 23.3502 44.4146 23.2457 44.2907 23.1691C41.5617 20.503 37.8995 19.0081 34.0843 19.0029C34.0819 19.0029 34.0795 19.0029 34.0769 19.0029H34.0724H34.0547C30.1615 19.0073 26.429 20.5558 23.6761 23.3087C20.9232 26.0616 19.3747 29.7941 19.3704 33.6873ZM29.419 27.6712L25.7456 24.0031C27.8144 22.2345 30.3914 21.1685 33.1052 20.9589V26.1393C33.1052 26.3941 33.2064 26.6385 33.3865 26.8186C33.5667 26.9988 33.811 27.1 34.0658 27.1C34.3206 27.1 34.5649 26.9988 34.7451 26.8186C34.9253 26.6385 35.0265 26.3941 35.0265 26.1393V20.9618C37.7387 21.1793 40.3121 22.2511 42.3767 24.0233L38.7319 27.6707C38.5517 27.8512 38.4506 28.0959 38.4508 28.3509C38.451 28.6059 38.5526 28.8504 38.733 29.0306C38.9135 29.2107 39.1582 29.3118 39.4132 29.3116C39.6682 29.3114 39.9127 29.2099 40.0928 29.0294L43.7387 25.3893C45.5042 27.4557 46.5695 30.0283 46.7816 32.7378H41.625C41.3702 32.7378 41.1258 32.839 40.9457 33.0192C40.7655 33.1993 40.6643 33.4437 40.6643 33.6985C40.6643 33.9532 40.7655 34.1976 40.9457 34.3777C41.1258 34.5579 41.3702 34.6591 41.625 34.6591H46.7816C46.5696 37.3653 45.5043 39.9343 43.7391 41.9965L40.0935 38.348C40.0048 38.2575 39.8989 38.1854 39.7822 38.136C39.6654 38.0865 39.54 38.0607 39.4132 38.0601C39.2864 38.0594 39.1607 38.0838 39.0434 38.132C38.926 38.1801 38.8194 38.2511 38.7297 38.3407C38.64 38.4303 38.5689 38.5367 38.5205 38.654C38.4722 38.7712 38.4475 38.8968 38.448 39.0237C38.4485 39.1505 38.4741 39.2759 38.5233 39.3928C38.5726 39.5096 38.6445 39.6156 38.7349 39.7045L42.3769 43.3517C40.3121 45.1237 37.7387 46.1954 35.0265 46.4129V41.2354C35.0265 40.9806 34.9253 40.7362 34.7451 40.5561C34.5649 40.3759 34.3206 40.2747 34.0658 40.2747C33.811 40.2747 33.5667 40.3759 33.3865 40.5561C33.2064 40.7362 33.1052 40.9806 33.1052 41.2354V46.4158C30.3915 46.2063 27.8144 45.1404 25.7456 43.3717L29.4162 39.7038C29.5054 39.6147 29.5762 39.509 29.6246 39.3925C29.6729 39.2761 29.6978 39.1513 29.6979 39.0252C29.698 38.8991 29.6733 38.7743 29.6251 38.6578C29.577 38.5413 29.5063 38.4354 29.4173 38.3462C29.3282 38.257 29.2224 38.1862 29.106 38.1379C28.9895 38.0895 28.8647 38.0646 28.7387 38.0645C28.6126 38.0644 28.4878 38.0891 28.3712 38.1373C28.2547 38.1855 28.1489 38.2561 28.0596 38.3452L24.3906 42.0205C22.6153 39.9533 21.5427 37.3755 21.3276 34.6591H26.5289C26.7837 34.6591 27.028 34.5579 27.2082 34.3777C27.3884 34.1976 27.4896 33.9532 27.4896 33.6985C27.4896 33.4437 27.3884 33.1993 27.2082 33.0192C27.028 32.839 26.7837 32.7378 26.5289 32.7378H21.3276C21.5164 30.0118 22.5922 27.4224 24.3908 25.3652L28.0603 29.0324C28.2408 29.2126 28.4855 29.3137 28.7405 29.3135C28.9955 29.3132 29.24 29.2117 29.4201 29.0312C29.6003 28.8508 29.7014 28.6061 29.7012 28.3511C29.701 28.0961 29.5995 27.8516 29.419 27.6714V27.6712Z" fill="#293B45"/>
<path d="M34.0548 37.3928C34.7876 37.3928 35.504 37.1755 36.1134 36.7683C36.7227 36.3612 37.1976 35.7825 37.4781 35.1054C37.7585 34.4283 37.8319 33.6833 37.689 32.9645C37.546 32.2457 37.1931 31.5855 36.6749 31.0673C36.1567 30.5491 35.4964 30.1962 34.7776 30.0532C34.0589 29.9102 33.3138 29.9836 32.6368 30.2641C31.9597 30.5445 31.381 31.0194 30.9738 31.6288C30.5667 32.2381 30.3494 32.9545 30.3494 33.6874C30.3505 34.6698 30.7412 35.6116 31.4359 36.3063C32.1305 37.001 33.0724 37.3917 34.0548 37.3928ZM34.0548 31.9033C34.4076 31.9033 34.7526 32.0079 35.0459 32.204C35.3393 32.4 35.568 32.6787 35.703 33.0047C35.8381 33.3307 35.8734 33.6894 35.8046 34.0354C35.7357 34.3815 35.5658 34.6994 35.3163 34.9489C35.0668 35.1984 34.7489 35.3684 34.4028 35.4372C34.0567 35.506 33.698 35.4707 33.372 35.3357C33.046 35.2006 32.7674 34.972 32.5714 34.6786C32.3753 34.3852 32.2707 34.0402 32.2707 33.6874C32.2712 33.2144 32.4593 32.7609 32.7938 32.4264C33.1283 32.092 33.5817 31.9038 34.0548 31.9033Z" fill="#293B45"/>
<path d="M8.1339 24.5874C8.25138 24.6335 8.37679 24.656 8.50295 24.6536C8.62912 24.6511 8.75357 24.6238 8.86917 24.5732C8.98478 24.5226 9.08927 24.4497 9.17667 24.3587C9.26406 24.2677 9.33265 24.1603 9.3785 24.0428C9.51766 23.6869 9.6667 23.3291 9.82123 22.9799C9.87506 22.8641 9.90527 22.7388 9.91011 22.6112C9.91495 22.4836 9.89431 22.3564 9.84941 22.2369C9.80451 22.1174 9.73624 22.008 9.64859 21.9152C9.56094 21.8224 9.45567 21.748 9.33893 21.6963C9.2222 21.6447 9.09633 21.6168 8.9687 21.6143C8.84106 21.6118 8.71422 21.6348 8.59557 21.682C8.47693 21.7291 8.36886 21.7994 8.27769 21.8887C8.18653 21.9781 8.11408 22.0847 8.0646 22.2024C7.89868 22.5773 7.7388 22.9611 7.58948 23.3428C7.49666 23.5801 7.50186 23.8445 7.60396 24.0779C7.70605 24.3113 7.89668 24.4946 8.1339 24.5874Z" fill="#293B45"/>
<path d="M14.2286 15.6667C14.3583 15.6668 14.4867 15.6407 14.606 15.5897C14.7253 15.5388 14.833 15.4642 14.9226 15.3704C15.1869 15.0944 15.4605 14.8206 15.7363 14.5566C15.8282 14.4695 15.9021 14.3651 15.9536 14.2494C16.0051 14.1338 16.0333 14.009 16.0364 13.8824C16.0395 13.7558 16.0176 13.6298 15.9718 13.5117C15.9261 13.3936 15.8574 13.2858 15.7698 13.1943C15.6822 13.1028 15.5774 13.0296 15.4614 12.9788C15.3454 12.928 15.2205 12.9006 15.0939 12.8982C14.9673 12.8959 14.8414 12.9186 14.7236 12.965C14.6058 13.0115 14.4983 13.0808 14.4074 13.169C14.1118 13.4521 13.8182 13.7453 13.5348 14.0416C13.4047 14.1776 13.3173 14.3488 13.2836 14.5339C13.2499 14.7191 13.2713 14.9101 13.3452 15.0832C13.4191 15.2563 13.5422 15.4039 13.6993 15.5076C13.8563 15.6113 14.0404 15.6666 14.2286 15.6667Z" fill="#293B45"/>
<path d="M22.9562 9.53764C23.0899 9.53757 23.2222 9.50952 23.3445 9.4553C23.6932 9.30091 24.0502 9.152 24.4054 9.01312C24.5231 8.96731 24.6306 8.89875 24.7217 8.81135C24.8129 8.72395 24.8859 8.61944 24.9367 8.50378C24.9874 8.38813 25.0148 8.26361 25.0174 8.13734C25.0199 8.01108 24.9976 7.88554 24.9516 7.76793C24.9056 7.65032 24.8368 7.54293 24.7493 7.45191C24.6617 7.36089 24.5571 7.28803 24.4413 7.23749C24.3256 7.18696 24.201 7.15974 24.0748 7.15739C23.9485 7.15505 23.823 7.17762 23.7055 7.22383C23.3244 7.373 22.9413 7.53261 22.5664 7.69839C22.365 7.78762 22.2004 7.94335 22.1001 8.13948C21.9999 8.33562 21.9701 8.56026 22.0157 8.77575C22.0614 8.99125 22.1797 9.18451 22.3508 9.32317C22.522 9.46182 22.7356 9.53744 22.9559 9.53737L22.9562 9.53764Z" fill="#293B45"/>
</svg>
