<svg width="31" height="19" viewBox="0 0 31 19" fill="none" xmlns="http://www.w3.org/2000/svg">
<path d="M25.3427 10.9456C24.8577 10.3331 24.9965 10.0606 25.3427 9.51315C25.349 9.5069 29.3527 3.97439 29.7652 2.09814L29.7677 2.09689C29.9727 1.41314 29.7677 0.910645 28.7765 0.910645H25.4965C24.6615 0.910645 24.2765 1.34189 24.0702 1.82439C24.0702 1.82439 22.4002 5.82189 20.0377 8.41315C19.2752 9.16189 18.9227 9.4019 18.5065 9.4019C18.3015 9.4019 17.9827 9.16189 17.9827 8.47815V2.09689C17.9827 1.27689 17.749 0.910645 17.0577 0.910645H11.9002C11.3765 0.910645 11.0652 1.29314 11.0652 1.64939C11.0652 2.42689 12.2465 2.60564 12.369 4.79314V9.5394C12.369 10.5794 12.1802 10.7706 11.7615 10.7706C10.6465 10.7706 7.94023 6.7569 6.33648 2.16314C6.01273 1.27189 5.69648 0.911894 4.85523 0.911894H1.57397C0.637725 0.911894 0.448975 1.34314 0.448975 1.82564C0.448975 2.67814 1.56397 6.91689 5.63398 12.5169C8.34648 16.3394 12.1665 18.4106 15.6415 18.4106C17.7302 18.4106 17.9852 17.9506 17.9852 17.1594C17.9852 13.5069 17.7965 13.1619 18.8427 13.1619C19.3277 13.1619 20.1627 13.4019 22.1127 15.2456C24.3415 17.4319 24.7077 18.4106 25.9552 18.4106H29.2352C30.1702 18.4106 30.644 17.9506 30.3715 17.0431C29.7477 15.1344 25.5327 11.2081 25.3427 10.9456Z" fill="white"/>
</svg>
