<svg width="36" height="26" viewBox="0 0 36 26" fill="none" xmlns="http://www.w3.org/2000/svg">
<path d="M35.0047 4.75603C34.5942 3.22984 33.3909 2.02676 31.8649 1.6158C29.0771 0.853027 17.9258 0.853027 17.9258 0.853027C17.9258 0.853027 6.77497 0.853027 3.9872 1.58688C2.49058 1.9974 1.25793 3.23006 0.847404 4.75603C0.11377 7.54359 0.11377 13.3246 0.11377 13.3246C0.11377 13.3246 0.11377 19.1348 0.847404 21.8932C1.25836 23.4192 2.46123 24.6222 3.98742 25.0332C6.80433 25.7962 17.9263 25.7962 17.9263 25.7962C17.9263 25.7962 29.0771 25.7962 31.8649 25.0623C33.3911 24.6516 34.5942 23.4485 35.0051 21.9225C35.7385 19.1348 35.7385 13.354 35.7385 13.354C35.7385 13.354 35.7679 7.54359 35.0047 4.75603ZM14.3755 18.6653V7.9839L23.6484 13.3246L14.3755 18.6653Z" fill="white"/>
</svg>
