<svg width="68" height="54" viewBox="0 0 68 54" fill="none" xmlns="http://www.w3.org/2000/svg">
<path d="M41.8867 20.1676C41.7099 20.0155 41.4926 19.9183 41.2614 19.8879C41.0302 19.8575 40.7951 19.8952 40.585 19.9963L35.8992 22.2473L38.8249 12.6928C38.8799 12.5135 38.8921 12.3238 38.8605 12.1389C38.8289 11.9541 38.7544 11.7792 38.6429 11.6284C38.5315 11.4775 38.3862 11.355 38.2187 11.2705C38.0513 11.186 37.8664 11.142 37.6788 11.142H30.8275C30.5428 11.142 30.2675 11.2433 30.0507 11.4277C29.8339 11.6121 29.6897 11.8676 29.6441 12.1486L26.2184 33.2165C26.183 33.4344 26.2084 33.6578 26.2919 33.8621C26.3754 34.0665 26.5136 34.2438 26.6914 34.3746C26.8693 34.5054 27.0797 34.5846 27.2997 34.6034C27.5196 34.6222 27.7405 34.5799 27.9379 34.4812L33.0542 31.9231V43.3433C33.0542 43.6303 33.1572 43.9079 33.3445 44.1254C33.5318 44.3429 33.7909 44.4861 34.0748 44.5287C34.3587 44.5714 34.6484 44.5109 34.8914 44.358C35.1344 44.2052 35.3145 43.9703 35.399 43.6959L42.2504 21.4291C42.319 21.2062 42.3211 20.9682 42.2566 20.7441C42.192 20.5201 42.0634 20.3197 41.8867 20.1676V20.1676ZM35.4521 35.3695V29.9832C35.4521 29.7788 35.3999 29.5778 35.3004 29.3993C35.2008 29.2208 35.0573 29.0707 34.8835 28.9633C34.7097 28.8559 34.5113 28.7946 34.3071 28.7854C34.1029 28.7762 33.8998 28.8194 33.717 28.9108L28.9613 31.2885L31.8473 13.5399H36.0578L32.8053 24.1614C32.7371 24.3842 32.7353 24.622 32.8001 24.8458C32.8649 25.0696 32.9935 25.2697 33.1702 25.4216C33.3468 25.5735 33.564 25.6706 33.795 25.7011C34.0259 25.7315 34.2608 25.694 34.4708 25.5932L39.1519 23.3444L35.4521 35.3695Z" fill="#293B45"/>
<path d="M64.9985 4.97577H62.6862V2.40651H63.2857C63.6037 2.40651 63.9086 2.28019 64.1335 2.05534C64.3583 1.83049 64.4847 1.52552 64.4847 1.20753C64.4847 0.889539 64.3583 0.584573 64.1335 0.35972C63.9086 0.134867 63.6037 0.00854492 63.2857 0.00854492H51.2958C50.9778 0.00854492 50.6729 0.134867 50.448 0.35972C50.2232 0.584573 50.0968 0.889539 50.0968 1.20753C50.0968 1.52552 50.2232 1.83049 50.448 2.05534C50.6729 2.28019 50.9778 2.40651 51.2958 2.40651H51.724V4.97577H16.6109V2.40651H17.2104C17.5284 2.40651 17.8334 2.28019 18.0582 2.05534C18.2831 1.83049 18.4094 1.52552 18.4094 1.20753C18.4094 0.889539 18.2831 0.584573 18.0582 0.35972C17.8334 0.134867 17.5284 0.00854492 17.2104 0.00854492H5.22055C4.90256 0.00854492 4.5976 0.134867 4.37274 0.35972C4.14789 0.584573 4.02157 0.889539 4.02157 1.20753C4.02157 1.52552 4.14789 1.83049 4.37274 2.05534C4.5976 2.28019 4.90256 2.40651 5.22055 2.40651H5.64876V4.97577H3.50772C1.9021 4.97577 0.510254 6.23916 0.510254 7.84477V50.4944C0.510254 52.1 1.9021 53.449 3.50772 53.449H64.9985C66.6041 53.449 67.8247 52.1 67.8247 50.4944V7.84477C67.833 7.46933 67.766 7.09604 67.6274 6.74699C67.4889 6.39795 67.2817 6.08025 67.0182 5.81272C66.7547 5.54519 66.4401 5.33327 66.0932 5.18951C65.7463 5.04574 65.374 4.97306 64.9985 4.97577V4.97577ZM54.122 2.40651H60.2882V4.97577H54.122V2.40651ZM8.04673 2.40651H14.2129V4.97577H8.04673V2.40651ZM65.4267 50.5372C65.4267 50.6735 65.3726 50.8042 65.2762 50.9005C65.1799 50.9969 65.0492 51.051 64.9129 51.051H3.42207C3.28579 51.051 3.15509 50.9969 3.05873 50.9005C2.96236 50.8042 2.90822 50.6735 2.90822 50.5372V7.88759C2.90822 7.75131 2.96236 7.62061 3.05873 7.52424C3.15509 7.42788 3.28579 7.37374 3.42207 7.37374H64.9129C65.0492 7.37374 65.1799 7.42788 65.2762 7.52424C65.3726 7.62061 65.4267 7.75131 65.4267 7.88759V50.5372Z" fill="#293B45"/>
</svg>
