<svg width="25" height="24" viewBox="0 0 25 24" fill="none" xmlns="http://www.w3.org/2000/svg">
<path d="M5.86908 2.62495C5.78106 2.51458 5.66995 2.42372 5.54313 2.35842C5.41632 2.29312 5.2767 2.25487 5.13355 2.24621C4.99041 2.23755 4.84701 2.25868 4.71288 2.30819C4.57876 2.3577 4.45697 2.43447 4.35562 2.53338L2.81383 4.03771C2.09363 4.74118 1.82822 5.73679 2.14284 6.61032C3.44865 10.2259 5.57279 13.5085 8.35772 16.2147C11.134 18.9293 14.5017 20.9998 18.2109 22.2727C19.107 22.5794 20.1284 22.3207 20.8501 21.6187L22.3919 20.1158C22.4934 20.017 22.5721 19.8983 22.6229 19.7676C22.6737 19.6368 22.6954 19.497 22.6865 19.3575C22.6776 19.218 22.6384 19.0819 22.5714 18.9583C22.5044 18.8347 22.4112 18.7264 22.298 18.6406L18.858 16.0331C18.737 15.9416 18.5963 15.8781 18.4465 15.8474C18.2967 15.8167 18.1417 15.8195 17.9932 15.8557L14.7277 16.6508C14.2918 16.757 13.8351 16.7513 13.4022 16.6344C12.9692 16.5175 12.5746 16.2933 12.2569 15.9836L8.5948 12.4125C8.27686 12.103 8.04657 11.7185 7.92637 11.2964C7.80616 10.8743 7.80015 10.4291 7.9089 10.0041L8.72602 6.82107C8.76316 6.6763 8.76608 6.5252 8.73457 6.37917C8.70306 6.23313 8.63793 6.09598 8.54411 5.97807L5.86908 2.62495ZM3.22985 1.43748C3.49078 1.18305 3.80426 0.985645 4.14946 0.858367C4.49467 0.73109 4.8637 0.676853 5.23206 0.69926C5.60042 0.721667 5.95967 0.820204 6.28596 0.988328C6.61226 1.15645 6.89813 1.39032 7.12458 1.67439L9.79961 5.02606C10.2902 5.64087 10.4631 6.44172 10.2693 7.19751L9.45367 10.3806C9.4115 10.5454 9.41378 10.7181 9.46029 10.8819C9.50679 11.0456 9.59595 11.1949 9.71909 11.3151L13.3827 14.8863C13.5062 15.0066 13.6596 15.0936 13.8279 15.1389C13.9962 15.1843 14.1736 15.1864 14.343 15.145L17.607 14.35C17.9896 14.2567 18.389 14.2495 18.7749 14.3288C19.1609 14.4081 19.5232 14.5719 19.8347 14.8078L23.2731 17.4153C24.5093 18.3528 24.6226 20.1332 23.5162 21.2103L21.9744 22.7131C20.871 23.7887 19.2218 24.2611 17.6845 23.7334C13.7498 22.384 10.1773 20.1882 7.23194 17.3092C4.27852 14.4386 2.02595 10.9568 0.641306 7.12193C0.10153 5.62488 0.586136 4.01591 1.68955 2.94035L3.23134 1.43748H3.22985Z" fill="#FAB246"/>
<path d="M5.86908 2.62495C5.78106 2.51458 5.66995 2.42372 5.54313 2.35842C5.41632 2.29312 5.2767 2.25487 5.13355 2.24621C4.99041 2.23755 4.84701 2.25868 4.71288 2.30819C4.57876 2.3577 4.45697 2.43447 4.35562 2.53338L2.81383 4.03771C2.09363 4.74118 1.82822 5.73679 2.14284 6.61032C3.44865 10.2259 5.57279 13.5085 8.35772 16.2147C11.134 18.9293 14.5017 20.9998 18.2109 22.2727C19.107 22.5794 20.1284 22.3207 20.8501 21.6187L22.3919 20.1158C22.4934 20.017 22.5721 19.8983 22.6229 19.7676C22.6737 19.6368 22.6954 19.497 22.6865 19.3575C22.6776 19.218 22.6384 19.0819 22.5714 18.9583C22.5044 18.8347 22.4112 18.7264 22.298 18.6406L18.858 16.0331C18.737 15.9416 18.5963 15.8781 18.4465 15.8474C18.2967 15.8167 18.1417 15.8195 17.9932 15.8557L14.7277 16.6508C14.2918 16.757 13.8351 16.7513 13.4022 16.6344C12.9692 16.5175 12.5746 16.2933 12.2569 15.9836L8.5948 12.4125C8.27686 12.103 8.04657 11.7185 7.92637 11.2964C7.80616 10.8743 7.80015 10.4291 7.9089 10.0041L8.72602 6.82107C8.76316 6.6763 8.76608 6.5252 8.73457 6.37917C8.70306 6.23313 8.63793 6.09598 8.54411 5.97807L5.86908 2.62495ZM3.22985 1.43748C3.49078 1.18305 3.80426 0.985645 4.14946 0.858367C4.49467 0.73109 4.8637 0.676853 5.23206 0.69926C5.60042 0.721667 5.95967 0.820204 6.28596 0.988328C6.61226 1.15645 6.89813 1.39032 7.12458 1.67439L9.79961 5.02606C10.2902 5.64087 10.4631 6.44172 10.2693 7.19751L9.45367 10.3806C9.4115 10.5454 9.41378 10.7181 9.46029 10.8819C9.50679 11.0456 9.59595 11.1949 9.71909 11.3151L13.3827 14.8863C13.5062 15.0066 13.6596 15.0936 13.8279 15.1389C13.9962 15.1843 14.1736 15.1864 14.343 15.145L17.607 14.35C17.9896 14.2567 18.389 14.2495 18.7749 14.3288C19.1609 14.4081 19.5232 14.5719 19.8347 14.8078L23.2731 17.4153C24.5093 18.3528 24.6226 20.1332 23.5162 21.2103L21.9744 22.7131C20.871 23.7887 19.2218 24.2611 17.6845 23.7334C13.7498 22.384 10.1773 20.1882 7.23194 17.3092C4.27852 14.4386 2.02595 10.9568 0.641306 7.12193C0.10153 5.62488 0.586136 4.01591 1.68955 2.94035L3.23134 1.43748H3.22985Z" stroke="#FAB246"/>
</svg>
