<svg width="83" height="57" viewBox="0 0 83 57" fill="none" xmlns="http://www.w3.org/2000/svg">
<path d="M1.69738 27.3456C1.32899 27.3456 0.975681 27.4919 0.715187 27.7524C0.454693 28.0129 0.30835 28.3662 0.30835 28.7346V42.459C0.30835 42.8274 0.454693 43.1807 0.715187 43.4412C0.975681 43.7017 1.32899 43.8481 1.69738 43.8481C2.06577 43.8481 2.41908 43.7017 2.67957 43.4412C2.94007 43.1807 3.08641 42.8274 3.08641 42.459V40.4421H11.0237V45.8901C11.0237 46.6573 11.6809 47.1889 12.4483 47.1889H16.7783V55.0397C16.7783 55.807 17.3996 56.5152 18.1673 56.5152H66.2024C66.9695 56.5152 67.5771 55.807 67.5771 55.0397V47.1889H71.921C72.6882 47.1889 73.3317 46.6573 73.3317 45.8901V40.4421H79.6816V42.459C79.6816 42.8274 79.8279 43.1807 80.0884 43.4412C80.3489 43.7017 80.7022 43.8481 81.0706 43.8481C81.439 43.8481 81.7923 43.7017 82.0528 43.4412C82.3133 43.1807 82.4596 42.8274 82.4596 42.459V28.7346C82.4596 28.3662 82.3133 28.0129 82.0528 27.7524C81.7923 27.4919 81.439 27.3456 81.0706 27.3456C80.7022 27.3456 80.3489 27.4919 80.0884 27.7524C79.8279 28.0129 79.6816 28.3662 79.6816 28.7346V30.7189H73.3317V25.3035C73.3281 25.123 73.2885 24.945 73.2153 24.7799C73.1422 24.6148 73.0368 24.466 72.9055 24.3421C72.7742 24.2181 72.6195 24.1216 72.4505 24.0581C72.2815 23.9946 72.1015 23.9654 71.921 23.9722H67.5771V16.1539C67.5771 15.9764 67.5411 15.8007 67.4711 15.6375C67.4012 15.4744 67.2989 15.3271 67.1703 15.2046C67.0418 15.0821 66.8897 14.9871 66.7233 14.9251C66.557 14.8632 66.3797 14.8357 66.2024 14.8443H52.8931V3.73204H54.8798C55.2482 3.73204 55.6015 3.5857 55.862 3.3252C56.1225 3.06471 56.2688 2.7114 56.2688 2.34301C56.2688 1.97462 56.1225 1.62131 55.862 1.36082C55.6015 1.10032 55.2482 0.953979 54.8798 0.953979H29.7181C29.3497 0.953979 28.9964 1.10032 28.7359 1.36082C28.4754 1.62131 28.3291 1.97462 28.3291 2.34301C28.3291 2.7114 28.4754 3.06471 28.7359 3.3252C28.9964 3.5857 29.3497 3.73204 29.7181 3.73204H31.6608V14.8443H18.1673C17.4002 14.8443 16.7783 15.3866 16.7783 16.1539V23.9722H12.4483C12.2671 23.9652 12.0863 23.9941 11.9164 24.0573C11.7465 24.1206 11.5908 24.2169 11.4583 24.3407C11.3258 24.4645 11.2192 24.6133 11.1446 24.7786C11.07 24.9438 11.0289 25.1223 11.0237 25.3035V30.7189H3.08641V28.7346C3.08641 28.3662 2.94007 28.0129 2.67957 27.7524C2.41908 27.4919 2.06577 27.3456 1.69738 27.3456V27.3456ZM73.3317 33.497H79.6816V37.6641H73.3317V33.497ZM34.4388 3.73204H50.115V5.71637H34.4388V3.73204ZM34.4388 8.49443H50.115V14.8443H34.4388V8.49443ZM13.8018 26.7503H18.1673C18.5415 26.737 18.8958 26.5785 19.1551 26.3085C19.4144 26.0384 19.5583 25.6779 19.5564 25.3035V17.6224H64.7991V25.3035C64.8002 25.6794 64.947 26.0403 65.2087 26.3101C65.4705 26.5799 65.8267 26.7377 66.2024 26.7503H70.5536V44.4108H66.2024C65.4353 44.4108 64.7991 45.123 64.7991 45.8901V53.7372H19.5564V45.8901C19.5564 45.123 18.9339 44.4108 18.1673 44.4108H13.8018V26.7503ZM8.4441 33.497H11.0237V37.6641H8.4441V33.497ZM5.66604 33.497V37.6641H3.08641V33.497H5.66604Z" fill="#293B45"/>
<path d="M41.3791 38.2016C40.9981 38.2016 40.6903 38.077 40.4558 37.8279C40.236 37.5787 40.0967 37.2343 40.0381 36.7946L39.2687 30.1555C39.1661 29.3933 39.3053 28.7778 39.6864 28.3088C40.0674 27.8252 40.6317 27.5833 41.3791 27.5833C42.1413 27.5833 42.7055 27.8252 43.0719 28.3088C43.4383 28.7778 43.5702 29.3933 43.4676 30.1555L42.7202 36.7946C42.6615 37.2343 42.5223 37.5787 42.3025 37.8279C42.0826 38.077 41.7749 38.2016 41.3791 38.2016ZM41.3791 43.4118C40.7196 43.4118 40.192 43.214 39.7963 42.8182C39.4152 42.4225 39.2247 41.9022 39.2247 41.2574C39.2247 40.6272 39.4152 40.1215 39.7963 39.7405C40.192 39.3448 40.7196 39.1469 41.3791 39.1469C42.068 39.1469 42.5956 39.3448 42.962 39.7405C43.3431 40.1215 43.5336 40.6272 43.5336 41.2574C43.5336 41.9022 43.3431 42.4225 42.962 42.8182C42.5956 43.214 42.068 43.4118 41.3791 43.4118Z" fill="#293B45"/>
</svg>
