<svg width="30" height="30" viewBox="0 0 30 30" fill="none" xmlns="http://www.w3.org/2000/svg">
<path fill-rule="evenodd" clip-rule="evenodd" d="M25.1893 4.83727C22.4704 2.11514 18.8544 0.615366 15.0022 0.61377C7.06428 0.61377 0.603971 7.0739 0.600779 15.0139C0.599714 17.5521 1.26277 20.0298 2.52308 22.2137L0.47998 29.6763L8.11439 27.6736C10.218 28.8211 12.5862 29.4258 14.9963 29.4265H15.0024C22.9394 29.4265 29.4004 22.9659 29.4034 15.0255C29.405 11.1773 27.9084 7.55922 25.1893 4.83727ZM15.0022 26.9944H14.9972C12.8495 26.9935 10.743 26.4163 8.90498 25.3259L8.46809 25.0664L3.93772 26.2549L5.14694 21.8379L4.86224 21.385C3.66401 19.4792 3.03129 17.2765 3.03235 15.0148C3.03483 8.41527 8.40458 3.04605 15.007 3.04605C18.2041 3.04711 21.2095 4.29377 23.4694 6.55629C25.7293 8.81882 26.9731 11.8262 26.972 15.0246C26.9692 21.6247 21.5998 26.9944 15.0022 26.9944ZM21.5679 18.0296C21.2081 17.8494 19.4389 16.9792 19.109 16.8589C18.7794 16.7388 18.5392 16.679 18.2996 17.0391C18.0596 17.3992 17.3701 18.2098 17.1601 18.4498C16.95 18.69 16.7404 18.7202 16.3805 18.54C16.0205 18.3599 14.8612 17.9798 13.4866 16.7539C12.417 15.7997 11.6949 14.6214 11.4848 14.2613C11.2752 13.9009 11.4831 13.7249 11.6427 13.5269C12.0323 13.0432 12.4223 12.5361 12.5422 12.2961C12.6623 12.0559 12.6022 11.8457 12.5121 11.6656C12.4223 11.4856 11.7027 9.71442 11.4029 8.99372C11.1106 8.29234 10.8142 8.38706 10.5931 8.37607C10.3835 8.3656 10.1435 8.36347 9.90347 8.36347C9.66365 8.36347 9.27376 8.45341 8.94383 8.81385C8.61407 9.17412 7.68459 10.0445 7.68459 11.8157C7.68459 13.5869 8.97399 15.2979 9.15385 15.5381C9.33372 15.7783 11.6913 19.4129 15.3009 20.9714C16.1594 21.3424 16.8296 21.5636 17.3523 21.7295C18.2144 22.0034 18.9986 21.9647 19.6188 21.8721C20.3102 21.7687 21.7475 21.0015 22.0477 20.1611C22.3475 19.3204 22.3475 18.6001 22.2573 18.4498C22.1676 18.2998 21.9276 18.2098 21.5679 18.0296Z" fill="white"/>
</svg>
