<svg width="211" height="44" viewBox="0 0 211 44" fill="none" xmlns="http://www.w3.org/2000/svg">
<path d="M66.9097 27.9791C66.2756 28.6837 65.3479 29.2512 64.1267 29.6818C62.9055 30.1123 61.5668 30.3276 60.1107 30.3276C57.8718 30.3276 56.083 29.6426 54.7444 28.2727C53.4057 26.9027 52.6894 24.9965 52.5955 22.554L52.5837 21.0745C52.5837 19.3914 52.8812 17.9236 53.4762 16.671C54.0711 15.4106 54.9205 14.4438 56.0243 13.7706C57.1359 13.0895 58.4198 12.749 59.8759 12.749C62.0052 12.749 63.657 13.2383 64.8312 14.2168C66.0133 15.1875 66.7022 16.6397 66.8979 18.5733H62.9289C62.788 17.6182 62.4827 16.9372 62.013 16.5301C61.5433 16.123 60.8779 15.9195 60.0168 15.9195C58.9834 15.9195 58.1849 16.3579 57.6213 17.2347C57.0577 18.1114 56.7719 19.364 56.7641 20.9923V22.0256C56.7641 23.7322 57.0537 25.0161 57.633 25.8772C58.2202 26.7305 59.14 27.1571 60.3926 27.1571C61.465 27.1571 62.2635 26.9184 62.788 26.4408V23.787H59.9229V20.9571H66.9097V27.9791ZM75.6579 24.0571H73.4268V30.0928H69.3052V12.9956H76.0337C78.0612 12.9956 79.6465 13.4457 80.7894 14.346C81.9324 15.2462 82.5038 16.5184 82.5038 18.1623C82.5038 19.3522 82.2611 20.3386 81.7758 21.1214C81.2983 21.9043 80.5467 22.5384 79.5212 23.0237L83.091 29.9166V30.0928H78.6757L75.6579 24.0571ZM73.4268 20.8749H76.0337C76.8165 20.8749 77.4036 20.6713 77.7951 20.2642C78.1943 19.8493 78.3939 19.2739 78.3939 18.5381C78.3939 17.8022 78.1943 17.2268 77.7951 16.8119C77.3958 16.3892 76.8087 16.1778 76.0337 16.1778H73.4268V20.8749ZM94.7044 26.8988H89.0562L88.0698 30.0928H83.6663L89.9369 12.9956H93.8119L100.129 30.0928H95.7025L94.7044 26.8988ZM90.0426 23.7166H93.718L91.8744 17.7866L90.0426 23.7166ZM112.154 23.2821H105.508V30.0928H101.386V12.9956H112.823V16.1778H105.508V20.1116H112.154V23.2821ZM123.356 25.5484C123.356 24.9456 123.141 24.4759 122.71 24.1393C122.288 23.8027 121.54 23.4543 120.468 23.0942C119.395 22.7341 118.518 22.3857 117.837 22.0491C115.622 20.961 114.514 19.4657 114.514 17.5634C114.514 16.6162 114.788 15.7825 115.336 15.0623C115.892 14.3342 116.675 13.7706 117.685 13.3713C118.694 12.9643 119.83 12.7607 121.09 12.7607C122.319 12.7607 123.419 12.9799 124.39 13.4183C125.368 13.8567 126.127 14.483 126.668 15.2971C127.208 16.1035 127.478 17.0272 127.478 18.0684H123.368C123.368 17.3717 123.153 16.8315 122.722 16.4479C122.299 16.0643 121.724 15.8725 120.996 15.8725C120.26 15.8725 119.677 16.0369 119.246 16.3657C118.824 16.6867 118.612 17.0977 118.612 17.5987C118.612 18.0371 118.847 18.4363 119.317 18.7964C119.786 19.1487 120.612 19.5166 121.794 19.9002C122.977 20.276 123.947 20.6831 124.707 21.1214C126.554 22.1861 127.478 23.6539 127.478 25.5249C127.478 27.0201 126.914 28.1944 125.787 29.0477C124.66 29.901 123.114 30.3276 121.149 30.3276C119.763 30.3276 118.507 30.081 117.379 29.5878C116.26 29.0868 115.414 28.4058 114.843 27.5446C114.279 26.6757 113.997 25.6776 113.997 24.5503H118.131C118.131 25.4662 118.366 26.1434 118.835 26.5817C119.313 27.0123 120.084 27.2276 121.149 27.2276C121.83 27.2276 122.366 27.0828 122.757 26.7931C123.157 26.4956 123.356 26.0807 123.356 25.5484ZM140.195 22.8476H133.713V26.9223H141.369V30.0928H129.592V12.9956H141.393V16.1778H133.713V19.7828H140.195V22.8476ZM149.401 24.0571H147.17V30.0928H143.049V12.9956H149.777C151.805 12.9956 153.39 13.4457 154.533 14.346C155.676 15.2462 156.247 16.5184 156.247 18.1623C156.247 19.3522 156.005 20.3386 155.519 21.1214C155.042 21.9043 154.29 22.5384 153.265 23.0237L156.834 29.9166V30.0928H152.419L149.401 24.0571ZM147.17 20.8749H149.777C150.56 20.8749 151.147 20.6713 151.538 20.2642C151.938 19.8493 152.137 19.2739 152.137 18.5381C152.137 17.8022 151.938 17.2268 151.538 16.8119C151.139 16.3892 150.552 16.1778 149.777 16.1778H147.17V20.8749ZM165.136 25.4427L168.542 12.9956H173.145L167.391 30.0928H162.882L157.175 12.9956H161.743L165.136 25.4427ZM178.793 30.0928H174.683V12.9956H178.793V30.0928ZM195.491 24.3037C195.436 25.4936 195.115 26.5465 194.528 27.4624C193.941 28.3705 193.115 29.0751 192.05 29.5761C190.993 30.0771 189.784 30.3276 188.422 30.3276C186.175 30.3276 184.406 29.5957 183.114 28.1318C181.823 26.6679 181.177 24.6012 181.177 21.9317V21.0862C181.177 19.4109 181.466 17.947 182.046 16.6945C182.633 15.4341 183.474 14.4634 184.57 13.7823C185.666 13.0934 186.934 12.749 188.375 12.749C190.449 12.749 192.117 13.297 193.377 14.393C194.638 15.4811 195.354 16.9841 195.526 18.9021H191.416C191.385 17.8609 191.123 17.1133 190.629 16.6593C190.136 16.2052 189.385 15.9782 188.375 15.9782C187.349 15.9782 186.598 16.3618 186.12 17.129C185.643 17.8962 185.392 19.1213 185.369 20.8044V22.0139C185.369 23.8379 185.596 25.1413 186.05 25.9242C186.512 26.707 187.302 27.0984 188.422 27.0984C189.369 27.0984 190.093 26.8753 190.594 26.4291C191.095 25.9829 191.361 25.2744 191.393 24.3037H195.491ZM208.044 22.8476H201.562V26.9223H209.218V30.0928H197.44V12.9956H209.241V16.1778H201.562V19.7828H208.044V22.8476Z" fill="white"/>
<path d="M10.893 40.8756C6.2581 38.2701 3.44149 35.1127 1.65104 30.0669C-0.139409 25.021 0.511667 21.3729 0.511667 21.3729C0.511667 21.3729 10.4416 24.7791 10.4416 26.1004C11.437 28.9614 13.161 31.1141 15.6574 32.5174C18.1537 33.9207 21.0944 34.3277 23.882 33.6558C26.6697 32.9838 29.0952 31.2833 30.6659 28.8996H22.6164L20.4567 24.0222L22.8704 19.1614H32.3983H41.8646C42.7855 24.3707 41.675 29.7329 38.7587 34.1586C35.8424 38.5842 31.3391 41.7416 26.1634 42.9892C20.9877 44.2368 15.5279 43.4811 10.893 40.8756Z" fill="white"/>
<path d="M29.0219 2.462C33.921 4.45015 38.0167 8.5963 40.2272 13.3891L30.7652 15.9058C29.3775 14.0183 28.2314 12.6982 25.5927 11.6274C22.954 10.5565 19.0423 11.1116 16.383 12.1307C12.3459 13.8924 11.3367 13.7666 3.76709 10.4948C5.9875 5.96466 11.3217 3.15237 13.7113 2.3125C18.6485 0.420388 24.1227 0.473839 29.0219 2.462Z" fill="white"/>
<path d="M10.6035 21.9282L1.00017 18.1846C1.00017 18.1846 0.837399 18.4264 0.837402 18.8356V19.3239L10.6035 23.0676V21.9282Z" fill="white"/>
<path d="M1.48838 15.2546L1.16284 16.5154L10.4406 19.9749L10.6034 18.8355L1.48838 15.2546Z" fill="white"/>
<path d="M2.95339 12.4875L2.46509 13.6269L10.929 17.0451L11.5801 15.9057L2.95339 12.4875Z" fill="white"/>
</svg>
