<svg width="212" height="44" viewBox="0 0 212 44" fill="none" xmlns="http://www.w3.org/2000/svg">
<path d="M67.3918 27.4128C66.7532 28.1224 65.8188 28.6941 64.5887 29.1278C63.3586 29.5615 62.0102 29.7783 60.5436 29.7783C58.2885 29.7783 56.4867 29.0884 55.1384 27.7085C53.79 26.3286 53.0685 24.4085 52.9739 21.9484L52.9621 20.4581C52.9621 18.7628 53.2617 17.2843 53.861 16.0227C54.4602 14.7532 55.3158 13.7794 56.4276 13.1013C57.5473 12.4152 58.8404 12.0722 60.3071 12.0722C62.4518 12.0722 64.1156 12.5651 65.2983 13.5507C66.489 14.5285 67.1829 15.9912 67.38 17.9388H63.3823C63.2403 16.9768 62.9328 16.2908 62.4597 15.8808C61.9866 15.4707 61.3164 15.2657 60.449 15.2657C59.4082 15.2657 58.6039 15.7073 58.0361 16.5904C57.4684 17.4736 57.1806 18.7352 57.1727 20.3753V21.4161C57.1727 23.1351 57.4645 24.4282 58.048 25.2956C58.6394 26.1551 59.5659 26.5848 60.8275 26.5848C61.9077 26.5848 62.712 26.3443 63.2403 25.8633V23.1903H60.3544V20.3398H67.3918V27.4128ZM76.2035 23.4623H73.9562V29.5417H69.8047V12.3206H76.582C78.6242 12.3206 80.221 12.774 81.3722 13.6808C82.5234 14.5876 83.099 15.8689 83.099 17.5248C83.099 18.7233 82.8546 19.7169 82.3657 20.5054C81.8847 21.2939 81.1277 21.9326 80.0948 22.4215L83.6904 29.3643V29.5417H79.2432L76.2035 23.4623ZM73.9562 20.257H76.582C77.3705 20.257 77.9619 20.052 78.3561 19.642C78.7583 19.2241 78.9593 18.6445 78.9593 17.9033C78.9593 17.1621 78.7583 16.5825 78.3561 16.1646C77.954 15.7388 77.3626 15.5259 76.582 15.5259H73.9562V20.257ZM95.388 26.3246H89.6989L88.7054 29.5417H84.27L90.586 12.3206H94.4891L100.852 29.5417H96.3934L95.388 26.3246ZM90.6924 23.1193H94.3945L92.5375 17.1463L90.6924 23.1193ZM112.964 22.6817H106.269V29.5417H102.118V12.3206H113.638V15.5259H106.269V19.4882H112.964V22.6817Z" fill="white"/>
<path d="M124.248 24.9644C124.248 24.3573 124.031 23.8842 123.597 23.5451C123.171 23.206 122.418 22.8552 121.338 22.4924C120.258 22.1297 119.375 21.7788 118.689 21.4398C116.457 20.3437 115.341 18.8377 115.341 16.9216C115.341 15.9675 115.617 15.1277 116.169 14.4023C116.729 13.669 117.518 13.1013 118.535 12.6991C119.552 12.2891 120.695 12.0841 121.965 12.0841C123.203 12.0841 124.311 12.3049 125.288 12.7464C126.274 13.188 127.039 13.8188 127.583 14.6389C128.127 15.451 128.399 16.3815 128.399 17.4302H124.259C124.259 16.7284 124.043 16.1843 123.609 15.798C123.183 15.4116 122.604 15.2184 121.87 15.2184C121.129 15.2184 120.542 15.384 120.108 15.7152C119.682 16.0385 119.469 16.4524 119.469 16.9571C119.469 17.3986 119.706 17.8008 120.179 18.1635C120.652 18.5183 121.484 18.8889 122.674 19.2753C123.865 19.6538 124.843 20.0638 125.608 20.5054C127.469 21.5778 128.399 23.0562 128.399 24.9408C128.399 26.4468 127.831 27.6296 126.696 28.4891C125.56 29.3486 124.003 29.7783 122.024 29.7783C120.628 29.7783 119.363 29.5299 118.227 29.0332C117.1 28.5285 116.248 27.8425 115.673 26.9751C115.105 26.0999 114.821 25.0945 114.821 23.9591H118.984C118.984 24.8816 119.221 25.5637 119.694 26.0053C120.175 26.4389 120.952 26.6558 122.024 26.6558C122.71 26.6558 123.25 26.5099 123.644 26.2182C124.047 25.9185 124.248 25.5006 124.248 24.9644ZM141.208 22.2441H134.68V26.3483H142.391V29.5417H130.528V12.3206H142.415V15.5259H134.68V19.157H141.208V22.2441ZM150.481 23.4623H148.234V29.5417H144.083V12.3206H150.86C152.902 12.3206 154.499 12.774 155.65 13.6808C156.801 14.5876 157.377 15.8689 157.377 17.5248C157.377 18.7233 157.133 19.7169 156.644 20.5054C156.163 21.2939 155.406 21.9326 154.373 22.4215L157.968 29.3643V29.5417H153.521L150.481 23.4623ZM148.234 20.257H150.86C151.648 20.257 152.24 20.052 152.634 19.642C153.036 19.2241 153.237 18.6445 153.237 17.9033C153.237 17.1621 153.036 16.5825 152.634 16.1646C152.232 15.7388 151.641 15.5259 150.86 15.5259H148.234V20.257ZM166.331 24.858L169.761 12.3206H174.397L168.601 29.5417H164.06L158.311 12.3206H162.912L166.331 24.858ZM180.086 29.5417H175.946V12.3206H180.086V29.5417ZM196.905 23.7107C196.85 24.9092 196.527 25.9698 195.935 26.8923C195.344 27.807 194.512 28.5167 193.44 29.0213C192.375 29.526 191.157 29.7783 189.785 29.7783C187.522 29.7783 185.74 29.041 184.439 27.5665C183.138 26.092 182.487 24.0103 182.487 21.3215V20.4699C182.487 18.7825 182.779 17.308 183.362 16.0463C183.954 14.7768 184.801 13.7991 185.905 13.1131C187.009 12.4192 188.287 12.0722 189.738 12.0722C191.827 12.0722 193.507 12.6242 194.776 13.7281C196.046 14.8242 196.767 16.3381 196.941 18.27H192.801C192.769 17.2212 192.505 16.4682 192.008 16.0109C191.512 15.5535 190.755 15.3249 189.738 15.3249C188.705 15.3249 187.948 15.7112 187.467 16.484C186.986 17.2567 186.733 18.4907 186.71 20.186V21.4043C186.71 23.2415 186.938 24.5544 187.396 25.3429C187.861 26.1314 188.657 26.5257 189.785 26.5257C190.739 26.5257 191.468 26.301 191.973 25.8515C192.478 25.4021 192.746 24.6885 192.777 23.7107H196.905ZM209.549 22.2441H203.02V26.3483H210.732V29.5417H198.869V12.3206H210.755V15.5259H203.02V19.157H209.549V22.2441Z" fill="#FAB246"/>
<path d="M10.9691 40.5619C6.30059 37.9376 3.46357 34.7572 1.66014 29.6748C-0.143292 24.5924 0.512503 20.9179 0.512503 20.9179C0.512503 20.9179 10.5144 24.3488 10.5144 25.6796C11.517 28.5613 13.2535 30.7297 15.768 32.1432C18.2824 33.5566 21.2444 33.9666 24.0523 33.2898C26.8601 32.613 29.3032 30.9001 30.8853 28.4991H22.7774L20.6021 23.5864L23.0333 18.6903H32.6303H42.1652C43.0927 23.9374 41.9742 29.3384 39.0368 33.7962C36.0994 38.254 31.5634 41.4342 26.3502 42.6908C21.137 43.9475 15.6376 43.1863 10.9691 40.5619Z" fill="#FAB246"/>
<path d="M29.2294 1.87007C34.164 3.87264 38.2894 8.04883 40.5159 12.8764L30.9853 15.4114C29.5875 13.5101 28.4331 12.1805 25.7753 11.1019C23.1175 10.0233 19.1774 10.5824 16.4989 11.6089C12.4325 13.3834 11.4159 13.2566 3.7915 9.96111C6.02801 5.39812 11.4009 2.56545 13.8078 1.71949C18.7808 -0.186342 24.2947 -0.132503 29.2294 1.87007Z" fill="#FAB246"/>
<path d="M10.6775 21.4775L1.00452 17.7067C1.00452 17.7067 0.840573 17.9502 0.840576 18.3625V18.8543L10.6775 22.6251V21.4775Z" fill="#FAB246"/>
<path d="M1.49635 14.7555L1.16846 16.0254L10.5135 19.51L10.6775 18.3624L1.49635 14.7555Z" fill="#FAB246"/>
<path d="M2.97182 11.9684L2.47998 13.116L11.0053 16.5589L11.6611 15.4113L2.97182 11.9684Z" fill="#FAB246"/>
</svg>
