<svg width="179" height="26" viewBox="0 0 179 26" fill="none" xmlns="http://www.w3.org/2000/svg">
<path d="M26.4302 9.12994L18.4116 7.96458L14.8271 0.697662C14.7292 0.498698 14.5682 0.337632 14.3692 0.239729C13.8702 -0.00660731 13.2638 0.198673 13.0144 0.697662L9.42984 7.96458L1.41128 9.12994C1.19021 9.16152 0.988092 9.26574 0.833342 9.42365C0.646258 9.61594 0.543167 9.87463 0.54672 10.1429C0.550273 10.4112 0.66018 10.667 0.852291 10.8543L6.65382 16.5106L5.28319 24.4975C5.25104 24.6833 5.2716 24.8744 5.34253 25.0491C5.41346 25.2238 5.53193 25.3752 5.68449 25.486C5.83705 25.5968 6.0176 25.6626 6.20568 25.676C6.39376 25.6894 6.58183 25.6499 6.74857 25.5618L13.9207 21.791L21.0929 25.5618C21.2887 25.666 21.5161 25.7008 21.734 25.6629C22.2835 25.5681 22.653 25.047 22.5583 24.4975L21.1877 16.5106L26.9892 10.8543C27.1471 10.6995 27.2513 10.4974 27.2829 10.2764C27.3682 9.72367 26.9829 9.21205 26.4302 9.12994Z" fill="#FAB246"/>
<path d="M55.4955 8.87856L55.2629 8.40695L51.6784 1.14004L51.6779 1.13917C51.6775 1.13826 51.6767 1.13744 51.6757 1.13699L51.6746 1.13642L51.673 1.13571L51.6725 1.13555L51.6722 1.13551C51.6716 1.13547 51.6695 1.1355 51.6666 1.1365C51.6637 1.1375 51.6615 1.13887 51.6603 1.1399L51.659 1.14132C51.6587 1.14173 51.658 1.14258 51.6572 1.14414C51.6571 1.14437 51.657 1.14462 51.6568 1.14488L48.0747 8.40695L47.8421 8.87856L47.3217 8.95418L39.3032 10.1195L39.3008 10.1199L39.2999 10.1202C39.2994 10.1205 39.2984 10.1211 39.2972 10.1221C39.2955 10.1243 39.2946 10.1269 39.2947 10.1296C39.2947 10.1329 39.296 10.136 39.2984 10.1382L39.2984 10.1383L45.1 15.7945L45.4764 16.1615L45.3875 16.6797L44.0168 24.6667L44.0166 24.668C44.0163 24.6697 44.0165 24.6714 44.0171 24.6729C44.0178 24.6745 44.0188 24.6758 44.0202 24.6768C44.0216 24.6778 44.0232 24.6784 44.0249 24.6785C44.0265 24.6787 44.0282 24.6783 44.0297 24.6775L44.0313 24.6767L51.2034 20.9059L51.6688 20.6612L52.1342 20.9059L59.3063 24.6767L59.3083 24.6777C59.3092 24.6778 59.3102 24.6778 59.3107 24.6777L59.3122 24.6774C59.3137 24.6772 59.3147 24.6769 59.3152 24.6767C59.3154 24.6766 59.3156 24.6766 59.3157 24.6766L59.3165 24.6761C59.3171 24.6757 59.3184 24.6747 59.3196 24.673C59.3207 24.6714 59.3211 24.6702 59.3212 24.67L59.3211 24.6694L59.3209 24.6674L59.3208 24.6667L57.9501 16.6797L57.8612 16.1615L58.2376 15.7945L64.0373 10.1401C64.0374 10.14 64.0375 10.1399 64.0376 10.1398L55.4955 8.87856ZM55.4955 8.87856L56.0159 8.95418M55.4955 8.87856L56.0159 8.95418M56.0159 8.95418L64.0313 10.1191L56.0159 8.95418Z" stroke="#FAB246" stroke-width="2"/>
<path d="M93.2435 8.87856L93.0109 8.40695L89.4264 1.14004L89.426 1.13917C89.4255 1.13826 89.4247 1.13744 89.4238 1.13699L89.4226 1.13642L89.421 1.13571L89.4205 1.13555L89.4202 1.13551C89.4196 1.13547 89.4176 1.1355 89.4147 1.1365C89.4117 1.1375 89.4096 1.13887 89.4084 1.1399L89.407 1.14132C89.4067 1.14173 89.4061 1.14258 89.4052 1.14414C89.4051 1.14437 89.405 1.14462 89.4049 1.14488L85.8228 8.40695L85.5901 8.87856L85.0698 8.95418L77.0512 10.1195L77.0488 10.1199L77.0479 10.1202C77.0474 10.1205 77.0465 10.1211 77.0452 10.1221C77.0436 10.1243 77.0427 10.1269 77.0427 10.1296C77.0428 10.1329 77.0441 10.136 77.0464 10.1382L77.0465 10.1383L82.848 15.7945L83.2244 16.1615L83.1355 16.6797L81.7649 24.6667L81.7646 24.668C81.7644 24.6697 81.7645 24.6714 81.7652 24.6729C81.7658 24.6745 81.7669 24.6758 81.7682 24.6768C81.7696 24.6778 81.7712 24.6784 81.7729 24.6785C81.7746 24.6787 81.7763 24.6783 81.7778 24.6775L81.7793 24.6767L88.9515 20.9059L89.4168 20.6612L89.8822 20.9059L97.0544 24.6767L97.0563 24.6777C97.0573 24.6778 97.0583 24.6778 97.0588 24.6777L97.0602 24.6774C97.0618 24.6772 97.0627 24.6769 97.0633 24.6767C97.0635 24.6766 97.0636 24.6766 97.0637 24.6766L97.0646 24.6761C97.0652 24.6757 97.0664 24.6747 97.0676 24.673C97.0688 24.6714 97.0691 24.6702 97.0692 24.67L97.0692 24.6694L97.0689 24.6674L97.0688 24.6667L95.6982 16.6797L95.6092 16.1615L95.9857 15.7945L101.785 10.1401C101.785 10.14 101.786 10.1399 101.786 10.1398L93.2435 8.87856ZM93.2435 8.87856L93.7639 8.95418M93.2435 8.87856L93.7639 8.95418M93.7639 8.95418L101.779 10.1191L93.7639 8.95418Z" stroke="#FAB246" stroke-width="2"/>
<path d="M130.992 8.87856L130.759 8.40695L127.174 1.14004L127.174 1.13917C127.174 1.13826 127.173 1.13744 127.172 1.13699L127.171 1.13642L127.169 1.13571L127.169 1.13555L127.168 1.13551C127.168 1.13547 127.166 1.1355 127.163 1.1365C127.16 1.1375 127.158 1.13887 127.156 1.1399L127.155 1.14132C127.155 1.14173 127.154 1.14258 127.153 1.14414C127.153 1.14437 127.153 1.14462 127.153 1.14488L123.571 8.40695L123.338 8.87856L122.818 8.95418L114.799 10.1195L114.797 10.1199L114.796 10.1202C114.795 10.1205 114.794 10.1211 114.793 10.1221C114.792 10.1243 114.791 10.1269 114.791 10.1296C114.791 10.1329 114.792 10.136 114.794 10.1382L114.795 10.1383L120.596 15.7945L120.972 16.1615L120.884 16.6797L119.513 24.6667L119.513 24.668C119.512 24.6697 119.513 24.6714 119.513 24.6729C119.514 24.6745 119.515 24.6758 119.516 24.6768C119.518 24.6778 119.519 24.6784 119.521 24.6785C119.523 24.6787 119.524 24.6783 119.526 24.6775L119.527 24.6767L126.7 20.9059L127.165 20.6612L127.63 20.9059L134.802 24.6767L134.804 24.6777C134.805 24.6778 134.806 24.6778 134.807 24.6777L134.808 24.6774C134.81 24.6772 134.811 24.6769 134.811 24.6767C134.812 24.6766 134.812 24.6766 134.812 24.6766L134.813 24.6761C134.813 24.6757 134.814 24.6747 134.816 24.673C134.817 24.6714 134.817 24.6702 134.817 24.67L134.817 24.6694L134.817 24.6674L134.817 24.6667L133.446 16.6797L133.357 16.1615L133.734 15.7945L139.533 10.1401C139.533 10.14 139.534 10.1399 139.534 10.1398L130.992 8.87856ZM130.992 8.87856L131.512 8.95418M130.992 8.87856L131.512 8.95418M131.512 8.95418L139.527 10.1191L131.512 8.95418Z" stroke="#FAB246" stroke-width="2"/>
<path d="M168.74 8.87856L168.507 8.40695L164.922 1.14004L164.922 1.13917C164.922 1.13826 164.921 1.13744 164.92 1.13699L164.919 1.13642L164.917 1.13571L164.917 1.13555L164.916 1.13551C164.916 1.13547 164.914 1.1355 164.911 1.1365C164.908 1.1375 164.906 1.13887 164.904 1.1399L164.903 1.14132C164.903 1.14173 164.902 1.14258 164.901 1.14414C164.901 1.14437 164.901 1.14462 164.901 1.14488L161.319 8.40695L161.086 8.87856L160.566 8.95418L152.547 10.1195L152.545 10.1199L152.544 10.1202C152.544 10.1205 152.543 10.1211 152.541 10.1221C152.54 10.1243 152.539 10.1269 152.539 10.1296C152.539 10.1329 152.54 10.136 152.542 10.1382L152.543 10.1383L158.344 15.7945L158.721 16.1615L158.632 16.6797L157.261 24.6667L157.261 24.668C157.26 24.6697 157.261 24.6714 157.261 24.6729C157.262 24.6745 157.263 24.6758 157.264 24.6768C157.266 24.6778 157.267 24.6784 157.269 24.6785C157.271 24.6787 157.272 24.6783 157.274 24.6775L157.275 24.6767L164.448 20.9059L164.913 20.6612L165.378 20.9059L172.55 24.6767L172.552 24.6777C172.553 24.6778 172.554 24.6778 172.555 24.6777L172.556 24.6774C172.558 24.6772 172.559 24.6769 172.559 24.6767C172.56 24.6766 172.56 24.6766 172.56 24.6766L172.561 24.6761C172.561 24.6757 172.563 24.6747 172.564 24.673C172.565 24.6714 172.565 24.6702 172.565 24.67L172.565 24.6694L172.565 24.6674L172.565 24.6667L171.194 16.6797L171.105 16.1615L171.482 15.7945L177.281 10.1401C177.282 10.14 177.282 10.1399 177.282 10.1398L168.74 8.87856ZM168.74 8.87856L169.26 8.95418M168.74 8.87856L169.26 8.95418M169.26 8.95418L177.275 10.1191L169.26 8.95418Z" stroke="#FAB246" stroke-width="2"/>
</svg>
