<svg width="179" height="26" viewBox="0 0 179 26" fill="none" xmlns="http://www.w3.org/2000/svg">
<path d="M26.553 9.12994L18.5344 7.96458L14.9499 0.697662C14.852 0.498698 14.691 0.337632 14.492 0.239729C13.993 -0.00660731 13.3866 0.198673 13.1372 0.697662L9.55265 7.96458L1.53409 9.12994C1.31302 9.16152 1.11089 9.26574 0.956145 9.42365C0.769061 9.61594 0.665969 9.87463 0.669522 10.1429C0.673076 10.4112 0.782983 10.667 0.975094 10.8543L6.77663 16.5106L5.40599 24.4975C5.37385 24.6833 5.39441 24.8744 5.46534 25.0491C5.53627 25.2238 5.65473 25.3752 5.80729 25.486C5.95985 25.5968 6.14041 25.6626 6.32848 25.676C6.51656 25.6894 6.70463 25.6499 6.87137 25.5618L14.0435 21.791L21.2157 25.5618C21.4115 25.666 21.6389 25.7008 21.8568 25.6629C22.4063 25.5681 22.7758 25.047 22.6811 24.4975L21.3105 16.5106L27.112 10.8543C27.2699 10.6995 27.3741 10.4974 27.4057 10.2764C27.491 9.72367 27.1057 9.21205 26.553 9.12994Z" fill="#FAB246"/>
<path d="M64.3011 9.12994L56.2825 7.96458L52.698 0.697662C52.6001 0.498698 52.439 0.337632 52.2401 0.239729C51.7411 -0.00660731 51.1347 0.198673 50.8852 0.697662L47.3007 7.96458L39.2821 9.12994C39.0611 9.16152 38.8589 9.26574 38.7042 9.42365C38.5171 9.61594 38.414 9.87463 38.4176 10.1429C38.4211 10.4112 38.531 10.667 38.7231 10.8543L44.5247 16.5106L43.154 24.4975C43.1219 24.6833 43.1425 24.8744 43.2134 25.0491C43.2843 25.2238 43.4028 25.3752 43.5553 25.486C43.7079 25.5968 43.8885 25.6626 44.0765 25.676C44.2646 25.6894 44.4527 25.6499 44.6194 25.5618L51.7916 21.791L58.9638 25.5618C59.1596 25.666 59.387 25.7008 59.6049 25.6629C60.1544 25.5681 60.5239 25.047 60.4292 24.4975L59.0585 16.5106L64.86 10.8543C65.018 10.6995 65.1222 10.4974 65.1538 10.2764C65.239 9.72367 64.8537 9.21205 64.3011 9.12994Z" fill="#FAB246"/>
<path d="M93.3663 8.87856L93.1337 8.40695L89.5492 1.14004L89.5488 1.13917C89.5483 1.13826 89.5475 1.13744 89.5466 1.13699L89.5454 1.13642L89.5438 1.13571L89.5433 1.13555L89.543 1.13551C89.5424 1.13547 89.5404 1.1355 89.5375 1.1365C89.5345 1.1375 89.5324 1.13887 89.5312 1.1399L89.5298 1.14132C89.5295 1.14173 89.5289 1.14258 89.5281 1.14414C89.5279 1.14437 89.5278 1.14462 89.5277 1.14488L85.9456 8.40695L85.7129 8.87856L85.1926 8.95418L77.174 10.1195L77.1716 10.1199L77.1708 10.1202C77.1702 10.1205 77.1693 10.1211 77.168 10.1221C77.1664 10.1243 77.1655 10.1269 77.1655 10.1296C77.1656 10.1329 77.1669 10.136 77.1692 10.1382L77.1693 10.1383L82.9708 15.7945L83.3472 16.1615L83.2583 16.6797L81.8877 24.6667L81.8874 24.668C81.8872 24.6697 81.8873 24.6714 81.888 24.6729C81.8886 24.6745 81.8897 24.6758 81.891 24.6768C81.8924 24.6778 81.894 24.6784 81.8957 24.6785C81.8974 24.6787 81.8991 24.6783 81.9006 24.6775L81.9021 24.6767L89.0743 20.9059L89.5396 20.6612L90.005 20.9059L97.1772 24.6767L97.1791 24.6777C97.1801 24.6778 97.1811 24.6778 97.1816 24.6777L97.183 24.6774C97.1846 24.6772 97.1855 24.6769 97.1861 24.6767C97.1863 24.6766 97.1864 24.6766 97.1865 24.6766L97.1874 24.6761C97.188 24.6757 97.1892 24.6747 97.1905 24.673C97.1916 24.6714 97.192 24.6702 97.192 24.67L97.192 24.6694L97.1917 24.6674L97.1916 24.6667L95.821 16.6797L95.732 16.1615L96.1085 15.7945L101.908 10.1401C101.908 10.14 101.908 10.1399 101.908 10.1398L93.3663 8.87856ZM93.3663 8.87856L93.8867 8.95418M93.3663 8.87856L93.8867 8.95418M93.8867 8.95418L101.902 10.1191L93.8867 8.95418Z" stroke="#FAB246" stroke-width="2"/>
<path d="M131.114 8.87856L130.882 8.40695L127.297 1.14004L127.297 1.13917C127.296 1.13826 127.296 1.13744 127.295 1.13699L127.293 1.13642L127.292 1.13571L127.291 1.13555L127.291 1.13551C127.29 1.13547 127.288 1.1355 127.286 1.1365C127.283 1.1375 127.28 1.13887 127.279 1.1399L127.278 1.14132C127.278 1.14173 127.277 1.14258 127.276 1.14414C127.276 1.14437 127.276 1.14462 127.276 1.14488L123.694 8.40695L123.461 8.87856L122.941 8.95418L114.922 10.1195L114.92 10.1199L114.919 10.1202C114.918 10.1205 114.917 10.1211 114.916 10.1221C114.914 10.1243 114.914 10.1269 114.914 10.1296C114.914 10.1329 114.915 10.136 114.917 10.1382L114.917 10.1383L120.719 15.7945L121.095 16.1615L121.006 16.6797L119.636 24.6667L119.635 24.668C119.635 24.6697 119.635 24.6714 119.636 24.6729C119.637 24.6745 119.638 24.6758 119.639 24.6768C119.64 24.6778 119.642 24.6784 119.644 24.6785C119.645 24.6787 119.647 24.6783 119.649 24.6775L119.65 24.6767L126.822 20.9059L127.288 20.6612L127.753 20.9059L134.925 24.6767L134.927 24.6777C134.928 24.6778 134.929 24.6778 134.93 24.6777L134.931 24.6774C134.933 24.6772 134.934 24.6769 134.934 24.6767C134.934 24.6766 134.934 24.6766 134.935 24.6766L134.935 24.6761C134.936 24.6757 134.937 24.6747 134.938 24.673C134.94 24.6714 134.94 24.6702 134.94 24.67L134.94 24.6694L134.94 24.6674L134.94 24.6667L133.569 16.6797L133.48 16.1615L133.857 15.7945L139.656 10.1401C139.656 10.14 139.656 10.1399 139.656 10.1398L131.114 8.87856ZM131.114 8.87856L131.635 8.95418M131.114 8.87856L131.635 8.95418M131.635 8.95418L139.65 10.1191L131.635 8.95418Z" stroke="#FAB246" stroke-width="2"/>
<path d="M168.862 8.87856L168.63 8.40695L165.045 1.14004L165.045 1.13917C165.044 1.13826 165.044 1.13744 165.043 1.13699L165.042 1.13642L165.04 1.13571L165.039 1.13555L165.039 1.13551C165.039 1.13547 165.036 1.1355 165.034 1.1365C165.031 1.1375 165.028 1.13887 165.027 1.1399L165.026 1.14132C165.026 1.14173 165.025 1.14258 165.024 1.14414C165.024 1.14437 165.024 1.14462 165.024 1.14488L161.442 8.40695L161.209 8.87856L160.689 8.95418L152.67 10.1195L152.668 10.1199L152.667 10.1202C152.666 10.1205 152.665 10.1211 152.664 10.1221C152.662 10.1243 152.662 10.1269 152.662 10.1296C152.662 10.1329 152.663 10.136 152.665 10.1382L152.665 10.1383L158.467 15.7945L158.843 16.1615L158.754 16.6797L157.384 24.6667L157.384 24.668C157.383 24.6697 157.383 24.6714 157.384 24.6729C157.385 24.6745 157.386 24.6758 157.387 24.6768C157.388 24.6778 157.39 24.6784 157.392 24.6785C157.393 24.6787 157.395 24.6783 157.397 24.6775L157.398 24.6767L164.57 20.9059L165.036 20.6612L165.501 20.9059L172.673 24.6767L172.675 24.6777C172.676 24.6778 172.677 24.6778 172.678 24.6777L172.679 24.6774C172.681 24.6772 172.682 24.6769 172.682 24.6767C172.682 24.6766 172.683 24.6766 172.683 24.6766L172.683 24.6761C172.684 24.6757 172.685 24.6747 172.687 24.673C172.688 24.6714 172.688 24.6702 172.688 24.67L172.688 24.6694L172.688 24.6674L172.688 24.6667L171.317 16.6797L171.228 16.1615L171.605 15.7945L177.404 10.1401C177.404 10.14 177.404 10.1399 177.405 10.1398L168.862 8.87856ZM168.862 8.87856L169.383 8.95418M168.862 8.87856L169.383 8.95418M169.383 8.95418L177.398 10.1191L169.383 8.95418Z" stroke="#FAB246" stroke-width="2"/>
</svg>
