<svg width="179" height="26" viewBox="0 0 179 26" fill="none" xmlns="http://www.w3.org/2000/svg">
<path d="M26.7742 9.12994L18.7556 7.96458L15.1711 0.697662C15.0732 0.498698 14.9122 0.337632 14.7132 0.239729C14.2142 -0.00660731 13.6078 0.198673 13.3583 0.697662L9.77384 7.96458L1.75528 9.12994C1.53421 9.16152 1.33209 9.26574 1.17734 9.42365C0.990252 9.61594 0.887161 9.87463 0.890714 10.1429C0.894267 10.4112 1.00417 10.667 1.19629 10.8543L6.99782 16.5106L5.62718 24.4975C5.59504 24.6833 5.6156 24.8744 5.68653 25.0491C5.75746 25.2238 5.87592 25.3752 6.02848 25.486C6.18104 25.5968 6.3616 25.6626 6.54968 25.676C6.73775 25.6894 6.92582 25.6499 7.09256 25.5618L14.2647 21.791L21.4369 25.5618C21.6327 25.666 21.8601 25.7008 22.078 25.6629C22.6275 25.5681 22.997 25.047 22.9023 24.4975L21.5317 16.5106L27.3332 10.8543C27.4911 10.6995 27.5953 10.4974 27.6269 10.2764C27.7122 9.72367 27.3269 9.21205 26.7742 9.12994Z" fill="#FAB246"/>
<path d="M64.5222 9.12994L56.5037 7.96458L52.9192 0.697662C52.8213 0.498698 52.6602 0.337632 52.4612 0.239729C51.9623 -0.00660731 51.3559 0.198673 51.1064 0.697662L47.5219 7.96458L39.5033 9.12994C39.2823 9.16152 39.0801 9.26574 38.9254 9.42365C38.7383 9.61594 38.6352 9.87463 38.6388 10.1429C38.6423 10.4112 38.7522 10.667 38.9443 10.8543L44.7459 16.5106L43.3752 24.4975C43.3431 24.6833 43.3636 24.8744 43.4346 25.0491C43.5055 25.2238 43.624 25.3752 43.7765 25.486C43.9291 25.5968 44.1096 25.6626 44.2977 25.676C44.4858 25.6894 44.6739 25.6499 44.8406 25.5618L52.0128 21.791L59.185 25.5618C59.3808 25.666 59.6082 25.7008 59.8261 25.6629C60.3756 25.5681 60.7451 25.047 60.6503 24.4975L59.2797 16.5106L65.0812 10.8543C65.2391 10.6995 65.3434 10.4974 65.3749 10.2764C65.4602 9.72367 65.0749 9.21205 64.5222 9.12994Z" fill="#FAB246"/>
<path d="M102.27 9.12994L94.2517 7.96458L90.6672 0.697662C90.5693 0.498698 90.4083 0.337632 90.2093 0.239729C89.7103 -0.00660731 89.1039 0.198673 88.8544 0.697662L85.2699 7.96458L77.2514 9.12994C77.0303 9.16152 76.8282 9.26574 76.6734 9.42365C76.4863 9.61594 76.3833 9.87463 76.3868 10.1429C76.3904 10.4112 76.5003 10.667 76.6924 10.8543L82.4939 16.5106L81.1233 24.4975C81.0911 24.6833 81.1117 24.8744 81.1826 25.0491C81.2536 25.2238 81.372 25.3752 81.5246 25.486C81.6771 25.5968 81.8577 25.6626 82.0458 25.676C82.2338 25.6894 82.4219 25.6499 82.5887 25.5618L89.7608 21.791L96.933 25.5618C97.1288 25.666 97.3562 25.7008 97.5741 25.6629C98.1236 25.5681 98.4931 25.047 98.3984 24.4975L97.0277 16.5106L102.829 10.8543C102.987 10.6995 103.091 10.4974 103.123 10.2764C103.208 9.72367 102.823 9.21205 102.27 9.12994Z" fill="#FAB246"/>
<path d="M140.018 9.12994L132 7.96458L128.415 0.697662C128.317 0.498698 128.156 0.337632 127.957 0.239729C127.458 -0.00660731 126.852 0.198673 126.602 0.697662L123.018 7.96458L114.999 9.12994C114.778 9.16152 114.576 9.26574 114.421 9.42365C114.234 9.61594 114.131 9.87463 114.135 10.1429C114.138 10.4112 114.248 10.667 114.44 10.8543L120.242 16.5106L118.871 24.4975C118.839 24.6833 118.86 24.8744 118.931 25.0491C119.002 25.2238 119.12 25.3752 119.273 25.486C119.425 25.5968 119.606 25.6626 119.794 25.676C119.982 25.6894 120.17 25.6499 120.337 25.5618L127.509 21.791L134.681 25.5618C134.877 25.666 135.104 25.7008 135.322 25.6629C135.872 25.5681 136.241 25.047 136.146 24.4975L134.776 16.5106L140.577 10.8543C140.735 10.6995 140.839 10.4974 140.871 10.2764C140.956 9.72367 140.571 9.21205 140.018 9.12994Z" fill="#FAB246"/>
<path d="M177.766 9.12994L169.748 7.96458L166.163 0.697662C166.065 0.498698 165.904 0.337632 165.705 0.239729C165.206 -0.00660731 164.6 0.198673 164.351 0.697662L160.766 7.96458L152.747 9.12994C152.526 9.16152 152.324 9.26574 152.17 9.42365C151.982 9.61594 151.879 9.87463 151.883 10.1429C151.886 10.4112 151.996 10.667 152.188 10.8543L157.99 16.5106L156.619 24.4975C156.587 24.6833 156.608 24.8744 156.679 25.0491C156.75 25.2238 156.868 25.3752 157.021 25.486C157.173 25.5968 157.354 25.6626 157.542 25.676C157.73 25.6894 157.918 25.6499 158.085 25.5618L165.257 21.791L172.429 25.5618C172.625 25.666 172.852 25.7008 173.07 25.6629C173.62 25.5681 173.989 25.047 173.894 24.4975L172.524 16.5106L178.325 10.8543C178.483 10.6995 178.588 10.4974 178.619 10.2764C178.704 9.72367 178.319 9.21205 177.766 9.12994Z" fill="#FAB246"/>
</svg>
